<?xml version="1.0" encoding="utf-8"?>
<!-- Generator: Adobe Illustrator 16.0.4, SVG Export Plug-In . SVG Version: 6.00 Build 0)  -->
<svg version="1.2" baseProfile="tiny" id="Layer_1" xmlns="http://www.w3.org/2000/svg" xmlns:xlink="http://www.w3.org/1999/xlink"
	 x="0px" y="0px" width="870px" height="196px" viewBox="0 0 870 196" overflow="auto" xml:space="preserve">
<path fill="none" stroke="#000000" stroke-width="2.8346" stroke-linecap="square" stroke-miterlimit="3.25" d="M342.167,38.868
	l0.055,0.14l0.055,0.138l0.107,0.278l0.216,0.551l0.436,1.102l0.867,2.185l1.736,4.307l3.765,9.038l3.514,8.067l3.444,7.565
	l3.737,7.818l3.488,6.931l3.781,7.114l3.709,6.585l3.462,5.779l3.754,5.881l3.504,5.12l3.437,4.673l3.726,4.688l3.479,4.011
	l3.77,3.954l3.702,3.48l3.452,2.889l3.742,2.747l0.056,0.034l0.055,0.039l0.326,0.22l0.438,0.289l0.873,0.561l1.747,1.054
	l0.061,0.033l0.059,0.035l0.119,0.066l0.235,0.136l0.474,0.263l0.947,0.51l0.059,0.03l0.062,0.03l0.116,0.061l0.238,0.123
	l0.475,0.237l0.944,0.457l0.233,0.106l0.231,0.106l0.464,0.209l0.931,0.397l0.057,0.023l0.06,0.024l0.116,0.047l0.232,0.097
	l0.465,0.182l0.929,0.35l0.056,0.02l0.054,0.019l0.109,0.04l0.216,0.076l0.433,0.148l0.867,0.279l0.054,0.018l0.055,0.017
	l0.326,0.101l0.434,0.127l0.867,0.234l0.116,0.031l0.119,0.031l0.234,0.058l0.469,0.112l0.062,0.015l0.175,0.04l0.236,0.054
	l0.469,0.101l0.059,0.014l0.06,0.011l0.116,0.024l0.236,0.045l0.47,0.089l0.941,0.155l0.054,0.009l0.056,0.007l0.11,0.018
	l0.22,0.031l0.438,0.059l0.057,0.007l0.163,0.021l0.221,0.026l0.438,0.046l0.055,0.007l0.055,0.005l0.11,0.012l0.221,0.021
	l0.108,0.009l0.109,0.012l0.22,0.016l0.056,0.005l0.164,0.013l0.22,0.015l0.055,0.005l0.056,0.002l0.109,0.007l0.22,0.013
	l0.056,0.004l0.052,0.002l0.108,0.004l0.053,0.003l0.054,0.002l0.107,0.005l0.108,0.004l0.107,0.005h0.054l0.052,0.002l0.109,0.002
	l0.055,0.003l0.052,0.002h0.055l0.055,0.002h0.107l0.054,0.002h0.052l0.055,0.004h0.216l0.053,0.002h0.27l0.055-0.002h0.214
	l0.054-0.004h0.107l0.054-0.002h0.055l0.052-0.002l0.109-0.002h0.052l0.055-0.003l0.106-0.002l0.109-0.005l0.106-0.004h0.055
	l0.055-0.002l0.105-0.005l0.217-0.011l0.116-0.006l0.117-0.007l0.231-0.013l0.117-0.01l0.116-0.006l0.468-0.037l0.233-0.02
	l0.466-0.045l0.117-0.013l0.117-0.013l0.234-0.025l0.465-0.059l0.059-0.006l0.06-0.01l0.116-0.016l0.234-0.033l0.465-0.068
	l0.058-0.01l0.381-0.062l0.435-0.074l0.056-0.012l0.054-0.01l0.108-0.02l0.219-0.042l0.435-0.087l0.054-0.012l0.056-0.014
	l0.108-0.021l0.218-0.047l0.436-0.099l0.871-0.213l0.06-0.017l0.06-0.016l0.119-0.031l0.234-0.062l0.473-0.131l0.942-0.282
	l0.061-0.018l0.059-0.021l0.119-0.035l0.707-0.232l0.942-0.334l0.059-0.021l0.059-0.021l0.116-0.041l0.695-0.268l0.927-0.378
	l1.854-0.825l0.055-0.027l0.055-0.024l0.106-0.053l0.218-0.104l0.431-0.211l0.864-0.441l1.729-0.949l0.117-0.066l0.117-0.068
	l0.236-0.137l0.468-0.276l0.937-0.575l1.875-1.229l3.5-2.562l3.433-2.857l3.724-3.484l3.475-3.614l3.767-4.31l3.516-4.396
	l3.448-4.655l3.739-5.44l3.49-5.44l3.782-6.294l3.712-6.581l3.465-6.498l3.756-7.438l3.509-7.314l3.436-7.512l3.73-8.538
	l3.479-8.332l0.063-0.147l0.423-1.042l0.485-1.198l0.972-2.413l0.062-0.151l0.061-0.153l0.362-0.914l0.484-1.224l0.062-0.153
	l0.182-0.46l0.242-0.618l0.062-0.153l0.062-0.156l0.121-0.309l0.061-0.153l0.182-0.467"/>
<line fill="none" stroke="#000000" stroke-width="2.8346" stroke-linecap="square" stroke-miterlimit="3.25" x1="342.167" y1="38.868" x2="65.333" y2="38.868"/>
<line fill="none" stroke="#000000" stroke-width="2.8346" stroke-linecap="square" stroke-miterlimit="3.25" x1="519.035" y1="38.868" x2="752" y2="38.868"/>
<line fill="none" stroke="#000000" stroke-width="2.7615" stroke-linecap="square" stroke-miterlimit="3.25" x1="74" y1="48.403" x2="74" y2="29.333"/>
<line fill="none" stroke="#000000" stroke-width="2.8346" stroke-linecap="square" stroke-miterlimit="3.25" x1="753.667" y1="48.403" x2="753.667" y2="29.333"/>
<g>
	
		<line fill="none" stroke="#000000" stroke-width="0.9921" stroke-linecap="square" stroke-miterlimit="3.25" x1="342.167" y1="38.868" x2="345.001" y2="38.868"/>
	
		<line fill="none" stroke="#000000" stroke-width="0.9921" stroke-linecap="square" stroke-miterlimit="3.25" stroke-dasharray="5.5225,5.5225" x1="350.524" y1="38.868" x2="513.439" y2="38.868"/>
	
		<line fill="none" stroke="#000000" stroke-width="0.9921" stroke-linecap="square" stroke-miterlimit="3.25" x1="516.2" y1="38.868" x2="519.035" y2="38.868"/>
</g>
<g>
	
		<line fill="none" stroke="#000000" stroke-width="0.9921" stroke-linecap="square" stroke-miterlimit="3.25" stroke-dasharray="5.6693,5.6693" x1="518.6" y1="44.856" x2="518.6" y2="145.893"/>
	<g>
		<path d="M518.6,38.868c-1.045,2.817-2.828,6.313-4.718,8.48l4.718-1.707l4.719,1.707C521.428,45.181,519.645,41.686,518.6,38.868z
			"/>
	</g>
	<g>
		<path d="M518.6,151.88c-1.045-2.817-2.828-6.313-4.718-8.479l4.718,1.707l4.719-1.707
			C521.428,145.566,519.645,149.062,518.6,151.88z"/>
	</g>
</g>
<g>
	<path d="M429.99,26.583c-0.589,0-1.701-0.25-2.154-1.542c-0.386,0.68-1.134,1.542-2.222,1.542c-1.043,0-1.996-0.521-1.996-1.406
		c0-0.749,0.566-1.225,1.134-1.225c0.295,0,0.771,0.136,0.771,0.726c0,0.34-0.204,0.907-0.885,1.088
		c0.386,0.317,0.931,0.317,0.998,0.317c1.36,0,1.837-1.814,2.2-3.288l0.521-2.063c0.204-0.839,0.476-1.95,0.476-2.494
		c0-0.907-0.431-1.429-1.088-1.429c-0.907,0-2.086,0.884-2.698,2.834c-0.113,0.363-0.113,0.385-0.408,0.385
		c-0.112,0-0.34,0-0.34-0.227c0-0.521,1.226-3.492,3.492-3.492c0.567,0,1.678,0.181,2.177,1.542
		c0.228-0.431,0.976-1.542,2.223-1.542c0.656,0,1.973,0.272,1.973,1.428c0,0.884-0.703,1.202-1.111,1.202
		c-0.589,0-0.793-0.431-0.793-0.726c0,0,0-0.861,0.907-1.088c-0.363-0.317-0.93-0.317-0.998-0.317c-1.064,0-1.678,1.247-1.995,2.426
		l-0.771,3.106c-0.183,0.771-0.432,1.746-0.432,2.29c0,1.179,0.612,1.451,1.066,1.451c0.952,0,2.086-0.884,2.698-2.834
		c0.112-0.362,0.136-0.385,0.408-0.385c0.158,0,0.34,0,0.34,0.227C433.482,23.544,432.325,26.583,429.99,26.583z"/>
	<path d="M438.528,32.642c-0.581,1.255-1.585,1.533-2.3,1.533c-0.646,0-1.611-0.264-2.181-1.334
		c-0.542-1.004-0.595-2.193-0.595-3.185c0-1.057,0.065-2.088,0.489-3c0.542-1.229,1.506-1.573,2.299-1.573
		c0.555,0,1.638,0.211,2.246,1.48c0.462,0.978,0.528,2.035,0.528,3.092C439.017,30.7,438.951,31.73,438.528,32.642z M437.788,26.92
		c-0.251-1.308-1.123-1.546-1.56-1.546c-0.33,0-1.321,0.119-1.572,1.691c-0.105,0.713-0.105,1.585-0.105,2.431
		c0,0.78,0,1.996,0.146,2.788c0.237,1.269,1.018,1.599,1.532,1.599c0.595,0,1.349-0.396,1.547-1.652
		c0.146-0.846,0.146-1.744,0.146-2.735C437.92,28.665,437.92,27.661,437.788,26.92z"/>
</g>
<g>
	<path d="M536.819,90.312c-0.342,0.703-0.816,1.27-1.656,1.27c-0.793,0-1.632-0.476-1.881-1.587
		c-0.908,1.111-1.905,1.587-2.723,1.587c-1.699,0-2.742-1.587-2.742-3.515c0-3.311,2.676-6.757,5.19-6.757
		c0.953,0,1.565,0.612,1.905,1.315l1.315-5.306c0,0,0.067-0.317,0.067-0.386c0-0.227-0.046-0.385-1.135-0.385
		c-0.316,0-0.544,0-0.544-0.25c0-0.431,0.249-0.454,0.521-0.476l2.244-0.182c0.068-0.022,0.295-0.045,0.363-0.045
		c0.181,0,0.315,0.068,0.315,0.272c0,0-0.045,0.227-0.066,0.294l-3.243,12.947c-0.136,0.544-0.136,0.884-0.136,1.043
		c0,0.317,0,0.93,0.59,0.93c0.771,0,1.202-1.428,1.519-2.698c0.138-0.499,0.159-0.521,0.433-0.521c0.158,0,0.34,0,0.34,0.227
		C537.499,88.09,537.227,89.451,536.819,90.312z M534.505,84.213c0.046-0.136,0.068-0.227,0.068-0.295
		c0-0.431-0.229-1.088-0.454-1.451c-0.408-0.635-0.93-0.658-1.111-0.658c-0.929,0-1.973,1.134-2.539,2.517
		c-0.408,0.952-1.11,3.605-1.11,4.739c0,0.68,0.182,2.018,1.247,2.018c1.246,0,2.631-1.814,2.812-2.517L534.505,84.213z"/>
	<path d="M546.219,98.845l-1.494,0.04v-0.41c0.887,0,1.031,0,1.031-0.595v-3.079c0-0.753-0.146-1.467-0.979-1.467
		c-0.847,0-1.783,0.74-1.783,2.114v2.431c0,0.595,0.145,0.595,1.03,0.595v0.41l-1.479-0.04l-1.494,0.04v-0.41
		c0.887,0,1.031,0,1.031-0.595V94.8c0-0.753-0.146-1.467-0.979-1.467c-0.846,0-1.783,0.74-1.783,2.114v2.431
		c0,0.595,0.146,0.595,1.03,0.595v0.41l-1.479-0.04l-1.493,0.04v-0.41c0.886,0,1.03,0,1.03-0.595v-3.541
		c0-0.648-0.105-0.74-1.03-0.74v-0.41l1.863-0.146v1.388c0.37-0.819,0.991-1.388,1.956-1.388c0.594,0,1.571,0.146,1.757,1.295
		c0.225-0.502,0.806-1.295,1.916-1.295c0.767,0,1.202,0.265,1.388,0.489c0.41,0.476,0.41,0.885,0.41,2.021v2.524
		c0.013,0.396,0.344,0.396,1.03,0.396v0.41L546.219,98.845z"/>
	<path d="M553.399,98.963c-0.621,0-0.979-0.555-1.03-1.083c-0.251,0.621-0.858,1.15-1.731,1.15c-0.832,0-2.112-0.331-2.112-1.401
		c0-0.582,0.33-1.269,1.319-1.718c0.833-0.396,1.758-0.436,2.433-0.476v-0.489c0-1.176-0.753-1.691-1.4-1.691
		c-0.423,0-1.07,0.146-1.428,0.608c0.607,0.013,0.674,0.449,0.674,0.608c0,0.344-0.237,0.608-0.607,0.608
		c-0.344,0-0.606-0.225-0.606-0.621c0-0.872,0.912-1.493,1.995-1.493c0.634,0,1.295,0.211,1.81,0.727
		c0.478,0.489,0.478,1.004,0.478,1.56v2.643c0,0.066,0.053,0.662,0.487,0.662c0.146,0,0.478-0.08,0.478-0.847v-0.74h0.33v0.74
		C554.483,98.777,553.676,98.963,553.399,98.963z M552.276,95.713c-2.181,0.079-2.735,1.176-2.735,1.903
		c0,0.661,0.542,1.123,1.189,1.123c0.595,0,1.546-0.449,1.546-1.705V95.713L552.276,95.713z"/>
	<path d="M560.128,98.845l-1.427,0.04v-0.41c0.355-0.013,0.476-0.211,0.476-0.33c0-0.08-0.172-0.291-0.277-0.437l-1.005-1.321
		c-0.806,0.952-1.188,1.388-1.188,1.678c0,0.198,0.093,0.37,0.384,0.41v0.41l-1.255-0.039c-0.344,0-0.754,0.012-1.098,0.039v-0.41
		c0.276,0,1.058-0.026,1.69-0.793c0.621-0.753,0.621-0.779,1.242-1.572l-1.309-1.705c-0.62-0.793-0.635-0.806-1.56-0.806v-0.41
		c0.357,0.026,0.979,0.04,1.256,0.04l1.427-0.04v0.41c-0.265,0.013-0.462,0.132-0.462,0.331c0,0.079,0,0.105,0.118,0.238l1.03,1.334
		l0.82-1.031c0.064-0.079,0.196-0.251,0.196-0.462c0-0.211-0.104-0.383-0.383-0.41v-0.41c0.172,0.013,0.872,0.04,1.27,0.04
		c0.344,0,0.739-0.013,1.083-0.04v0.41c-0.621,0.013-1.162,0.211-1.572,0.687c-0.316,0.344-0.818,0.991-1.215,1.493l1.77,2.286
		c0.306,0.383,0.543,0.41,1.256,0.41v0.41C561,98.857,560.485,98.845,560.128,98.845z"/>
</g>
<g>
	<path d="M78.091,21.202c-0.998,2.154-2.721,2.63-3.945,2.63c-1.111,0-2.766-0.454-3.741-2.291c-0.93-1.723-1.021-3.764-1.021-5.464
		c0-1.814,0.113-3.583,0.839-5.147c0.93-2.109,2.585-2.698,3.945-2.698c0.953,0,2.812,0.363,3.855,2.54
		c0.793,1.678,0.907,3.492,0.907,5.306C78.93,17.869,78.817,19.637,78.091,21.202z M76.822,11.383
		c-0.431-2.245-1.928-2.653-2.676-2.653c-0.567,0-2.268,0.204-2.698,2.902c-0.182,1.225-0.182,2.721-0.182,4.172
		c0,1.338,0,3.424,0.25,4.784c0.408,2.177,1.746,2.744,2.63,2.744c1.021,0,2.313-0.68,2.653-2.834c0.25-1.451,0.25-2.993,0.25-4.693
		C77.048,14.376,77.048,12.653,76.822,11.383z"/>
</g>
<g>
	<path d="M760.391,18.05l-1.723,4.875c-0.137,0.386-0.158,0.408-0.658,0.408h-9.704c-0.361,0-0.566,0-0.566-0.272
		c0-0.431,0.25-0.431,0.612-0.431c1.541,0,1.679-0.181,1.859-0.952l3.061-12.312c0.092-0.317,0.092-0.362,0.092-0.431
		c0-0.385-0.612-0.385-1.315-0.385c-0.431,0-0.612,0-0.612-0.272c0-0.431,0.295-0.431,0.432-0.431c0.906,0,1.858,0.068,2.789,0.068
		c1.043,0,2.108-0.068,3.129-0.068c0.092,0,0.341,0,0.341,0.272c0,0.431-0.249,0.431-0.636,0.431h-0.228
		c-1.836,0-1.973,0.227-2.176,1.02l-3.084,12.335c-0.022,0.136-0.091,0.363-0.091,0.499c0,0.159,0,0.227,0.702,0.227h1.838
		c3.537,0,4.512-2.63,5.237-4.648c0.158-0.431,0.181-0.499,0.452-0.499c0.068,0,0.342,0,0.342,0.272L760.391,18.05z"/>
</g>
<line fill="none" stroke="#000000" stroke-width="2.7615" stroke-linecap="square" stroke-miterlimit="3.25" x1="430.601" y1="34.583" x2="430.601" y2="42.583"/>
<g>
	<path fill="#333333" d="M427.477,166.234c0,0.516,0.133,0.927,0.396,1.232c0.263,0.309,0.637,0.461,1.12,0.461
		c0.316,0,0.604-0.131,0.854-0.394c0.252-0.265,0.444-0.595,0.576-0.988s0.23-0.763,0.296-1.104
		c0.066-0.338,0.105-0.635,0.116-0.888c0-0.384-0.038-0.745-0.116-1.086c-0.076-0.34-0.152-0.593-0.229-0.756
		c-0.077-0.165-0.221-0.472-0.429-0.923l-0.166,0.064c-0.481,0.166-0.898,0.461-1.25,0.89c-0.351,0.428-0.603,0.899-0.757,1.416
		c-0.152,0.515-0.258,0.938-0.312,1.267C427.521,165.757,427.488,166.025,427.477,166.234z M428.843,158.354
		c0-0.518,0.175-0.94,0.527-1.269c0.35-0.33,0.761-0.499,1.233-0.511c0.187,0.012,0.455,0.055,0.808,0.133
		c0.351,0.075,0.658,0.141,0.92,0.195c0.264,0.056,0.406,0.094,0.429,0.115c0.197,0.088,0.296,0.242,0.296,0.461
		c0,0.198-0.07,0.385-0.214,0.561c-0.142,0.176-0.335,0.264-0.576,0.264c-0.229,0-0.531-0.16-0.904-0.478
		c-0.373-0.318-0.702-0.483-0.987-0.494c-0.285-0.013-0.5,0.065-0.642,0.229c-0.144,0.164-0.221,0.324-0.231,0.479
		c0,0.48,0.543,1.388,1.629,2.716c0.736,0.921,1.104,1.859,1.104,2.812c0,1.351-0.334,2.514-1.004,3.49
		c-0.67,0.978-1.41,1.471-2.223,1.48h-0.115c-0.778,0-1.409-0.251-1.892-0.757c-0.483-0.505-0.741-1.146-0.773-1.925
		c0-1.459,0.631-2.717,1.893-3.771c0.438-0.341,0.993-0.624,1.663-0.854c0-0.013-0.039-0.096-0.115-0.246
		c-0.078-0.154-0.159-0.33-0.247-0.526c-0.088-0.198-0.176-0.418-0.263-0.659c-0.088-0.24-0.159-0.486-0.214-0.74
		C428.887,158.807,428.854,158.57,428.843,158.354z"/>
	<path fill="none" stroke="#333333" stroke-width="0.0165" d="M427.477,166.234c0,0.516,0.133,0.927,0.396,1.232
		c0.263,0.309,0.637,0.461,1.12,0.461c0.316,0,0.604-0.131,0.854-0.394c0.252-0.265,0.444-0.595,0.576-0.988s0.23-0.763,0.296-1.104
		c0.066-0.338,0.105-0.635,0.116-0.888c0-0.384-0.038-0.745-0.116-1.086c-0.076-0.34-0.152-0.593-0.229-0.756
		c-0.077-0.165-0.221-0.472-0.429-0.923l-0.166,0.064c-0.481,0.166-0.898,0.461-1.25,0.89c-0.351,0.428-0.603,0.899-0.757,1.416
		c-0.152,0.515-0.258,0.938-0.312,1.267C427.521,165.757,427.488,166.025,427.477,166.234z M428.842,158.354
		c0-0.518,0.176-0.94,0.527-1.269c0.351-0.33,0.762-0.499,1.234-0.511c0.187,0.012,0.455,0.055,0.808,0.133
		c0.351,0.075,0.657,0.141,0.92,0.195c0.264,0.056,0.406,0.094,0.429,0.115c0.197,0.088,0.296,0.242,0.296,0.461
		c0,0.198-0.07,0.385-0.214,0.561c-0.142,0.176-0.335,0.264-0.576,0.264c-0.229,0-0.531-0.16-0.904-0.478
		c-0.373-0.318-0.702-0.483-0.987-0.494c-0.286-0.013-0.5,0.065-0.642,0.231c-0.144,0.162-0.221,0.322-0.231,0.477
		c0,0.48,0.543,1.388,1.63,2.716c0.735,0.921,1.103,1.859,1.103,2.812c0,1.351-0.334,2.514-1.004,3.49
		c-0.67,0.978-1.41,1.471-2.223,1.48h-0.115c-0.778,0-1.409-0.251-1.892-0.757c-0.483-0.505-0.741-1.146-0.773-1.925
		c0-1.459,0.631-2.717,1.893-3.771c0.438-0.341,0.993-0.624,1.662-0.854c0-0.013-0.038-0.094-0.114-0.246
		c-0.078-0.154-0.159-0.33-0.247-0.526c-0.088-0.198-0.176-0.417-0.263-0.659c-0.088-0.24-0.159-0.486-0.214-0.74
		C428.888,158.807,428.854,158.57,428.842,158.354z"/>
	<path fill="#333333" d="M433.911,163.617c0.078-0.459,0.374-0.993,0.889-1.596c0.516-0.604,1.151-0.91,1.909-0.922
		c0.384,0,0.735,0.1,1.054,0.295c0.318,0.197,0.555,0.444,0.708,0.741c0.461-0.69,1.016-1.036,1.663-1.036
		c0.405,0,0.756,0.119,1.054,0.362c0.296,0.24,0.448,0.563,0.46,0.972c0,0.317-0.077,0.575-0.23,0.771
		c-0.153,0.197-0.301,0.318-0.444,0.361c-0.143,0.045-0.269,0.066-0.378,0.066c-0.208,0-0.379-0.061-0.511-0.181
		c-0.131-0.121-0.197-0.281-0.197-0.479c0-0.505,0.273-0.851,0.823-1.035c-0.121-0.145-0.34-0.215-0.658-0.215
		c-0.143,0-0.247,0.012-0.312,0.033c-0.417,0.176-0.726,0.537-0.922,1.086c-0.658,2.424-0.987,3.84-0.987,4.246
		c0,0.307,0.088,0.526,0.263,0.657c0.176,0.133,0.368,0.198,0.577,0.198c0.405,0,0.806-0.182,1.201-0.545
		c0.395-0.36,0.664-0.806,0.807-1.332c0.033-0.109,0.065-0.17,0.099-0.181c0.033-0.013,0.121-0.021,0.263-0.032h0.066
		c0.165,0,0.247,0.043,0.247,0.131c0,0.011-0.012,0.072-0.033,0.183c-0.176,0.623-0.518,1.178-1.021,1.661
		c-0.505,0.482-1.092,0.725-1.761,0.725c-0.769,0-1.349-0.346-1.744-1.037c-0.45,0.68-0.966,1.021-1.547,1.021h-0.099
		c-0.537,0-0.921-0.144-1.151-0.427c-0.231-0.285-0.351-0.59-0.362-0.905c0-0.351,0.104-0.638,0.313-0.856
		c0.208-0.22,0.455-0.326,0.74-0.326c0.472,0,0.708,0.229,0.708,0.688c0,0.219-0.065,0.412-0.197,0.577
		c-0.132,0.163-0.258,0.273-0.378,0.328c-0.121,0.054-0.192,0.08-0.214,0.08l-0.05,0.019c0,0.011,0.033,0.032,0.1,0.065
		c0.064,0.033,0.153,0.072,0.263,0.115c0.109,0.045,0.213,0.061,0.312,0.049c0.395,0,0.734-0.248,1.021-0.739
		c0.099-0.177,0.226-0.549,0.379-1.119c0.153-0.571,0.308-1.163,0.46-1.776c0.153-0.615,0.241-0.978,0.264-1.086
		c0.055-0.298,0.083-0.511,0.083-0.644c0-0.308-0.083-0.526-0.247-0.659c-0.166-0.131-0.353-0.195-0.561-0.195
		c-0.438,0-0.851,0.176-1.234,0.526c-0.385,0.351-0.652,0.8-0.808,1.349c-0.021,0.1-0.049,0.153-0.082,0.166
		c-0.034,0.01-0.122,0.021-0.264,0.03h-0.23C433.945,163.732,433.911,163.673,433.911,163.617z"/>
	<path fill="none" stroke="#333333" stroke-width="0.0165" d="M433.911,163.619c0.078-0.461,0.374-0.995,0.889-1.598
		c0.516-0.604,1.151-0.91,1.909-0.922c0.384,0,0.735,0.1,1.054,0.295c0.318,0.197,0.555,0.444,0.708,0.741
		c0.461-0.69,1.016-1.036,1.663-1.036c0.405,0,0.756,0.119,1.052,0.362c0.298,0.24,0.45,0.563,0.462,0.972
		c0,0.317-0.077,0.575-0.23,0.771c-0.153,0.197-0.301,0.318-0.444,0.361c-0.143,0.045-0.269,0.066-0.378,0.066
		c-0.208,0-0.379-0.061-0.511-0.181c-0.131-0.121-0.197-0.281-0.197-0.479c0-0.505,0.273-0.851,0.823-1.035
		c-0.121-0.145-0.34-0.215-0.658-0.215c-0.143,0-0.247,0.012-0.312,0.033c-0.417,0.176-0.726,0.537-0.922,1.086
		c-0.658,2.424-0.988,3.84-0.988,4.246c0,0.307,0.087,0.525,0.263,0.657c0.176,0.133,0.368,0.198,0.577,0.198
		c0.405,0,0.806-0.182,1.201-0.545c0.395-0.36,0.664-0.806,0.807-1.332c0.033-0.109,0.065-0.17,0.099-0.181
		c0.033-0.013,0.121-0.021,0.263-0.032h0.066c0.164,0,0.246,0.043,0.246,0.131c0,0.011-0.011,0.072-0.033,0.183
		c-0.177,0.623-0.517,1.178-1.021,1.661c-0.505,0.482-1.092,0.725-1.761,0.725c-0.77,0-1.349-0.346-1.744-1.035
		c-0.45,0.678-0.966,1.019-1.547,1.019h-0.099c-0.537,0-0.921-0.144-1.151-0.427c-0.231-0.285-0.351-0.59-0.362-0.905
		c0-0.351,0.104-0.638,0.312-0.856c0.209-0.22,0.456-0.328,0.741-0.328c0.472,0,0.708,0.229,0.708,0.69
		c0,0.219-0.065,0.412-0.197,0.577c-0.132,0.163-0.258,0.273-0.378,0.326c-0.121,0.056-0.192,0.082-0.214,0.082l-0.05,0.019
		c0,0.011,0.033,0.032,0.1,0.065c0.064,0.033,0.153,0.072,0.263,0.115c0.109,0.045,0.213,0.061,0.312,0.049
		c0.395,0,0.734-0.248,1.021-0.739c0.098-0.177,0.226-0.55,0.379-1.119c0.153-0.571,0.307-1.163,0.46-1.776
		c0.153-0.615,0.241-0.978,0.264-1.086c0.055-0.298,0.082-0.511,0.082-0.644c0-0.308-0.082-0.526-0.246-0.659
		c-0.166-0.131-0.353-0.195-0.561-0.195c-0.438,0-0.85,0.176-1.234,0.526s-0.652,0.8-0.808,1.349
		c-0.021,0.1-0.049,0.153-0.082,0.166c-0.034,0.01-0.122,0.021-0.264,0.03h-0.23C433.944,163.732,433.911,163.673,433.911,163.619z"
		/>
</g>
<g>
	
		<line fill="none" stroke="#000000" stroke-width="0.9921" stroke-linecap="square" stroke-miterlimit="3.25" stroke-dasharray="8.5039,8.5039" x1="348.154" y1="151.833" x2="513.047" y2="151.833"/>
	<g>
		<path d="M342.167,151.833c2.817,1.045,6.313,2.829,8.48,4.719l-1.707-4.719l1.707-4.718
			C348.479,149.005,344.984,150.788,342.167,151.833z"/>
	</g>
	<g>
		<path d="M519.035,151.833c-2.817,1.045-6.313,2.829-8.48,4.719l1.707-4.719l-1.707-4.718
			C512.722,149.005,516.217,150.788,519.035,151.833z"/>
	</g>
</g>
<g>
	
		<line fill="none" stroke="#000000" stroke-width="2.8346" stroke-linecap="square" stroke-miterlimit="3.25" x1="752" y1="38.868" x2="805.56" y2="38.868"/>
	<g>
		<path d="M822.667,38.868c-8.05,2.987-18.038,8.083-24.229,13.481l4.877-13.481l-4.877-13.479
			C804.629,30.788,814.618,35.884,822.667,38.868z"/>
	</g>
</g>
<g>
	
		<line fill="none" stroke="#000000" stroke-width="2.8346" stroke-linecap="square" stroke-miterlimit="3.25" x1="74" y1="160.227" x2="74" y2="38.868"/>
	<g>
		<path d="M74,177.333c2.987-8.05,8.083-18.038,13.481-24.229L74,157.98l-13.479-4.877C65.919,159.295,71.016,169.283,74,177.333z"
			/>
	</g>
</g>
<g>
	<path d="M56.258,44.938c-0.998,2.154-2.721,2.63-3.945,2.63c-1.111,0-2.766-0.454-3.741-2.291c-0.93-1.723-1.021-3.764-1.021-5.464
		c0-1.814,0.113-3.583,0.839-5.147c0.93-2.109,2.585-2.698,3.945-2.698c0.953,0,2.812,0.363,3.855,2.54
		c0.793,1.678,0.907,3.492,0.907,5.306C57.097,41.605,56.983,43.374,56.258,44.938z M54.988,35.12
		c-0.431-2.245-1.928-2.653-2.676-2.653c-0.567,0-2.268,0.204-2.698,2.902c-0.182,1.225-0.182,2.721-0.182,4.172
		c0,1.338,0,3.424,0.25,4.784c0.408,2.177,1.746,2.744,2.63,2.744c1.021,0,2.313-0.68,2.653-2.834c0.25-1.451,0.25-2.993,0.25-4.693
		C55.215,38.113,55.215,36.39,54.988,35.12z"/>
</g>
<g>
	<path d="M101.818,176.312c-0.34,0.703-0.816,1.271-1.655,1.271c-0.793,0-1.632-0.476-1.882-1.587
		c-0.907,1.111-1.905,1.587-2.721,1.587c-1.701,0-2.744-1.587-2.744-3.515c0-3.312,2.676-6.758,5.192-6.758
		c0.953,0,1.565,0.612,1.905,1.315l1.315-5.308c0,0,0.068-0.315,0.068-0.385c0-0.227-0.045-0.386-1.134-0.386
		c-0.317,0-0.544,0-0.544-0.249c0-0.432,0.25-0.454,0.522-0.477l2.245-0.182c0.068-0.022,0.295-0.046,0.363-0.046
		c0.181,0,0.317,0.068,0.317,0.271c0,0-0.045,0.227-0.068,0.295l-3.243,12.946c-0.136,0.545-0.136,0.886-0.136,1.043
		c0,0.317,0,0.931,0.59,0.931c0.771,0,1.202-1.429,1.519-2.698c0.136-0.499,0.159-0.521,0.431-0.521c0.159,0,0.34,0,0.34,0.228
		C102.499,174.09,102.227,175.45,101.818,176.312z M99.505,170.213c0.045-0.136,0.068-0.229,0.068-0.295
		c0-0.432-0.227-1.089-0.454-1.451c-0.408-0.635-0.93-0.656-1.111-0.656c-0.929,0-1.973,1.133-2.54,2.517
		c-0.408,0.952-1.111,3.604-1.111,4.739c0,0.68,0.181,2.018,1.247,2.018c1.247,0,2.63-1.814,2.812-2.518L99.505,170.213z"/>
	<path d="M110.594,183.001c-0.227,0-2.177-1.474-3.537-4.263c-1.247-2.562-1.497-5.307-1.497-7.074c0-1.905,0.272-4.422,1.429-6.916
		c1.338-2.88,3.378-4.421,3.605-4.421c0.136,0,0.227,0.067,0.227,0.228c0,0.067,0,0.112-0.295,0.385
		c-2.789,2.834-3.65,6.778-3.65,10.726c0,3.47,0.726,7.755,3.56,10.61c0.386,0.387,0.386,0.432,0.386,0.5
		C110.821,182.934,110.73,183.001,110.594,183.001z"/>
	<path d="M119.71,177.582c-0.589,0-1.701-0.249-2.154-1.542c-0.386,0.68-1.134,1.542-2.222,1.542c-1.043,0-1.996-0.521-1.996-1.405
		c0-0.749,0.567-1.225,1.134-1.225c0.295,0,0.771,0.136,0.771,0.725c0,0.341-0.204,0.908-0.884,1.089
		c0.385,0.317,0.93,0.317,0.998,0.317c1.36,0,1.837-1.813,2.2-3.287l0.521-2.063c0.204-0.838,0.476-1.949,0.476-2.494
		c0-0.906-0.431-1.428-1.088-1.428c-0.907,0-2.086,0.883-2.698,2.834c-0.113,0.362-0.113,0.385-0.408,0.385
		c-0.113,0-0.34,0-0.34-0.228c0-0.521,1.225-3.491,3.492-3.491c0.567,0,1.678,0.182,2.177,1.543
		c0.227-0.433,0.975-1.543,2.222-1.543c0.657,0,1.973,0.272,1.973,1.43c0,0.884-0.703,1.201-1.111,1.201
		c-0.589,0-0.793-0.432-0.793-0.727c0,0,0-0.861,0.907-1.089c-0.363-0.315-0.93-0.315-0.998-0.315c-1.065,0-1.678,1.246-1.995,2.426
		l-0.771,3.105c-0.182,0.771-0.431,1.746-0.431,2.29c0,1.181,0.612,1.451,1.066,1.451c0.952,0,2.086-0.885,2.698-2.834
		c0.113-0.363,0.136-0.386,0.408-0.386c0.159,0,0.34,0,0.34,0.227C123.203,174.544,122.046,177.582,119.71,177.582z"/>
	<path d="M127.784,178.579c-1.338,2.881-3.378,4.422-3.605,4.422c-0.136,0-0.227-0.09-0.227-0.228c0-0.067,0-0.112,0.295-0.385
		c2.812-2.856,3.65-6.849,3.65-10.726c0-4.739-1.292-8.345-3.515-10.589c-0.431-0.408-0.431-0.453-0.431-0.521
		c0-0.137,0.091-0.227,0.227-0.227c0.227,0,2.177,1.473,3.538,4.262c1.247,2.562,1.496,5.307,1.496,7.075
		C129.212,173.568,128.94,176.085,127.784,178.579z"/>
</g>
<g>
	<path d="M818.99,23.583c-0.589,0-1.7-0.25-2.153-1.542c-0.387,0.68-1.135,1.542-2.223,1.542c-1.043,0-1.996-0.521-1.996-1.406
		c0-0.749,0.566-1.225,1.135-1.225c0.295,0,0.771,0.136,0.771,0.726c0,0.34-0.204,0.907-0.885,1.088
		c0.386,0.317,0.931,0.317,0.997,0.317c1.36,0,1.837-1.814,2.2-3.288l0.521-2.063c0.202-0.839,0.476-1.95,0.476-2.494
		c0-0.907-0.431-1.429-1.089-1.429c-0.906,0-2.086,0.884-2.697,2.834c-0.112,0.363-0.112,0.385-0.408,0.385
		c-0.112,0-0.341,0-0.341-0.227c0-0.521,1.226-3.492,3.492-3.492c0.567,0,1.678,0.181,2.177,1.542
		c0.228-0.431,0.976-1.542,2.224-1.542c0.655,0,1.973,0.272,1.973,1.428c0,0.884-0.703,1.202-1.111,1.202
		c-0.59,0-0.794-0.431-0.794-0.726c0,0,0-0.861,0.907-1.088c-0.363-0.317-0.93-0.317-0.998-0.317c-1.064,0-1.678,1.247-1.995,2.426
		l-0.771,3.106c-0.183,0.771-0.433,1.746-0.433,2.29c0,1.179,0.612,1.451,1.066,1.451c0.951,0,2.086-0.884,2.697-2.834
		c0.112-0.362,0.137-0.385,0.407-0.385c0.159,0,0.342,0,0.342,0.227C822.482,20.544,821.325,23.583,818.99,23.583z"/>
</g>
</svg>
