<?xml version="1.0" encoding="utf-8"?>
<!-- Generator: Adobe Illustrator 16.0.4, SVG Export Plug-In . SVG Version: 6.00 Build 0)  -->
<svg version="1.2" baseProfile="tiny" id="Layer_1" xmlns="http://www.w3.org/2000/svg" xmlns:xlink="http://www.w3.org/1999/xlink"
	 x="0px" y="0px" width="446px" height="263.333px" viewBox="0 0 446 263.333" xml:space="preserve">
<rect y="203.667" fill="#E6E7E8" width="446" height="59.666"/>
<rect y="29.667" fill="#6D6F71" width="446" height="4.667"/>
<rect x="109.333" y="60.333" width="23.333" height="7.334"/>
<text transform="matrix(1 0 0 1 114.6216 57.333)" font-family="'LMRoman10-Regular'" font-size="17.0079">N</text>
<text transform="matrix(1 0 0 1 117.0596 25.333)" font-family="'LMRoman10-Regular'" font-size="14.1732">S</text>
<text transform="matrix(1 0 0 1 116.2715 218.333)" font-family="'LMRoman10-Regular'" font-size="17.0079">S</text>
<text transform="matrix(1 0 0 1 344.6211 218.333)" font-family="'LMRoman10-Regular'" font-size="17.0079">N</text>
<text transform="matrix(1 0 0 1 345.6846 25.333)" font-family="'LMRoman10-Regular'" font-size="14.1732">N</text>
<g>
	<path fill="none" stroke="#000000" stroke-width="1.0006" stroke-miterlimit="10" d="M174.333,74.333
		C174.333,75.806,150.455,77,121,77c-29.456,0-53.333-1.194-53.333-2.667"/>
	<g>
		<path fill="none" stroke="#A7A9AC" stroke-width="0.7087" stroke-miterlimit="10" d="M67.872,81.86
			c-0.019-0.289,0.885-0.629,2.575-1.003"/>
		<path fill="none" stroke="#A7A9AC" stroke-width="0.7087" stroke-miterlimit="10" stroke-dasharray="5.9707,5.9707" d="
			M76.328,79.846c9.438-1.359,25.867-2.935,44.584-4.177c20.849-1.383,38.938-1.981,47.725-1.687"/>
		<path fill="none" stroke="#A7A9AC" stroke-width="0.7087" stroke-miterlimit="10" d="M171.619,74.146
			c1.724,0.148,2.666,0.365,2.685,0.654"/>
	</g>
	<path fill="none" stroke="#000000" stroke-width="1.0006" stroke-miterlimit="10" d="M67.841,81.32
		c-0.098,1.469,23.649,4.241,53.041,6.191c29.39,1.95,53.294,2.339,53.392,0.869"/>
	<g>
		<path fill="none" stroke="#A7A9AC" stroke-width="0.7087" stroke-miterlimit="10" d="M67.872,96.034
			c-0.019-0.289,0.885-0.629,2.575-1.003"/>
		<path fill="none" stroke="#A7A9AC" stroke-width="0.7087" stroke-miterlimit="10" stroke-dasharray="5.9707,5.9707" d="
			M76.328,94.019c9.438-1.359,25.867-2.935,44.584-4.177c20.849-1.383,38.938-1.981,47.725-1.687"/>
		<path fill="none" stroke="#A7A9AC" stroke-width="0.7087" stroke-miterlimit="10" d="M171.619,88.319
			c1.724,0.148,2.666,0.365,2.685,0.654"/>
	</g>
	<path fill="none" stroke="#000000" stroke-width="1.0006" stroke-miterlimit="10" d="M67.841,95.493
		c-0.098,1.469,23.649,4.241,53.041,6.191c29.39,1.95,53.294,2.339,53.392,0.869"/>
	<g>
		<path fill="none" stroke="#A7A9AC" stroke-width="0.7087" stroke-miterlimit="10" d="M67.872,110.207
			c-0.019-0.289,0.885-0.629,2.575-1.003"/>
		<path fill="none" stroke="#A7A9AC" stroke-width="0.7087" stroke-miterlimit="10" stroke-dasharray="5.9707,5.9707" d="
			M76.328,108.192c9.438-1.359,25.867-2.935,44.584-4.177c20.849-1.383,38.938-1.981,47.725-1.687"/>
		<path fill="none" stroke="#A7A9AC" stroke-width="0.7087" stroke-miterlimit="10" d="M171.619,102.492
			c1.724,0.148,2.666,0.365,2.685,0.654"/>
	</g>
	<path fill="none" stroke="#000000" stroke-width="1.0006" stroke-miterlimit="10" d="M67.841,109.667
		c-0.098,1.469,23.649,4.241,53.041,6.191c29.39,1.95,53.294,2.339,53.392,0.869"/>
	<g>
		<path fill="none" stroke="#A7A9AC" stroke-width="0.7087" stroke-miterlimit="10" d="M67.872,124.38
			c-0.019-0.289,0.885-0.629,2.575-1.003"/>
		<path fill="none" stroke="#A7A9AC" stroke-width="0.7087" stroke-miterlimit="10" stroke-dasharray="5.9707,5.9707" d="
			M76.328,122.366c9.438-1.359,25.867-2.935,44.584-4.177c20.849-1.383,38.938-1.981,47.725-1.687"/>
		<path fill="none" stroke="#A7A9AC" stroke-width="0.7087" stroke-miterlimit="10" d="M171.619,116.666
			c1.724,0.148,2.666,0.365,2.685,0.654"/>
	</g>
	<path fill="none" stroke="#000000" stroke-width="1.0006" stroke-miterlimit="10" d="M67.841,123.84
		c-0.098,1.469,23.649,4.241,53.041,6.191c29.39,1.95,53.294,2.339,53.392,0.869"/>
	<g>
		<path fill="none" stroke="#A7A9AC" stroke-width="0.7087" stroke-miterlimit="10" d="M67.872,138.554
			c-0.019-0.289,0.885-0.629,2.575-1.003"/>
		<path fill="none" stroke="#A7A9AC" stroke-width="0.7087" stroke-miterlimit="10" stroke-dasharray="5.9707,5.9707" d="
			M76.328,136.539c9.438-1.359,25.867-2.935,44.584-4.177c20.849-1.383,38.938-1.981,47.725-1.687"/>
		<path fill="none" stroke="#A7A9AC" stroke-width="0.7087" stroke-miterlimit="10" d="M171.619,130.839
			c1.724,0.148,2.666,0.365,2.685,0.654"/>
	</g>
	<path fill="none" stroke="#000000" stroke-width="1.0006" stroke-miterlimit="10" d="M67.841,138.013
		c-0.098,1.469,23.649,4.241,53.041,6.191c29.39,1.95,53.294,2.339,53.392,0.869"/>
	<g>
		<path fill="none" stroke="#A7A9AC" stroke-width="0.7087" stroke-miterlimit="10" d="M67.872,152.727
			c-0.019-0.289,0.885-0.629,2.575-1.003"/>
		<path fill="none" stroke="#A7A9AC" stroke-width="0.7087" stroke-miterlimit="10" stroke-dasharray="5.9707,5.9707" d="
			M76.328,150.712c9.438-1.359,25.867-2.935,44.584-4.177c20.849-1.383,38.938-1.981,47.725-1.687"/>
		<path fill="none" stroke="#A7A9AC" stroke-width="0.7087" stroke-miterlimit="10" d="M171.619,145.012
			c1.724,0.148,2.666,0.365,2.685,0.654"/>
	</g>
	<path fill="none" stroke="#000000" stroke-width="1.0006" stroke-miterlimit="10" d="M67.841,152.187
		c-0.098,1.469,23.649,4.241,53.041,6.191c29.39,1.95,53.294,2.339,53.392,0.869"/>
	<g>
		<path fill="none" stroke="#A7A9AC" stroke-width="0.7087" stroke-miterlimit="10" d="M67.872,166.9
			c-0.019-0.289,0.885-0.629,2.575-1.003"/>
		<path fill="none" stroke="#A7A9AC" stroke-width="0.7087" stroke-miterlimit="10" stroke-dasharray="5.9707,5.9707" d="
			M76.328,164.886c9.438-1.359,25.867-2.935,44.584-4.177c20.849-1.383,38.938-1.981,47.725-1.687"/>
		<path fill="none" stroke="#A7A9AC" stroke-width="0.7087" stroke-miterlimit="10" d="M171.619,159.186
			c1.724,0.148,2.666,0.365,2.685,0.654"/>
	</g>
	<path fill="none" stroke="#000000" stroke-width="1.0006" stroke-miterlimit="10" d="M67.841,166.36
		c-0.098,1.469,23.649,4.241,53.041,6.191c29.39,1.95,53.294,2.339,53.392,0.869"/>
	<g>
		<path fill="none" stroke="#A7A9AC" stroke-width="0.7087" stroke-miterlimit="10" d="M67.872,181.074
			c-0.019-0.289,0.885-0.629,2.575-1.003"/>
		<path fill="none" stroke="#A7A9AC" stroke-width="0.7087" stroke-miterlimit="10" stroke-dasharray="5.9707,5.9707" d="
			M76.328,179.059c9.438-1.359,25.867-2.935,44.584-4.177c20.849-1.383,38.938-1.981,47.725-1.687"/>
		<path fill="none" stroke="#A7A9AC" stroke-width="0.7087" stroke-miterlimit="10" d="M171.619,173.359
			c1.724,0.148,2.666,0.365,2.685,0.654"/>
	</g>
	<path fill="none" stroke="#000000" stroke-width="1.0006" stroke-miterlimit="10" d="M67.841,180.533
		c-0.098,1.469,23.649,4.241,53.041,6.191c29.39,1.95,53.294,2.339,53.392,0.869"/>
	<g>
		<path fill="none" stroke="#A7A9AC" stroke-width="0.7087" stroke-miterlimit="10" d="M67.872,195.247
			c-0.019-0.289,0.885-0.629,2.575-1.003"/>
		<path fill="none" stroke="#A7A9AC" stroke-width="0.7087" stroke-miterlimit="10" stroke-dasharray="5.9707,5.9707" d="
			M76.328,193.232c9.438-1.359,25.867-2.935,44.584-4.177c20.849-1.383,38.938-1.981,47.725-1.687"/>
		<path fill="none" stroke="#A7A9AC" stroke-width="0.7087" stroke-miterlimit="10" d="M171.619,187.532
			c1.724,0.148,2.666,0.365,2.685,0.654"/>
	</g>
	<path fill="none" stroke="#000000" stroke-width="1.0006" stroke-miterlimit="10" d="M175.351,195.72
		c0,1.473-23.878,2.667-53.333,2.667c-29.456,0-53.333-1.194-53.333-2.667"/>
</g>
<rect x="67.667" y="67.667" fill="none" stroke="#000000" stroke-width="2.7573" stroke-miterlimit="10" width="106.667" height="134.992"/>
<rect x="338.824" y="60.333" width="23.333" height="7.334"/>
<text transform="matrix(1 0 0 1 345.7617 58.333)" font-family="'LMRoman10-Regular'" font-size="17.0079">S</text>
<g>
	<path fill="none" stroke="#000000" stroke-width="1.0006" stroke-miterlimit="10" d="M403.824,74.333
		c0,1.473-23.879,2.667-53.334,2.667s-53.333-1.194-53.333-2.667"/>
	<g>
		<path fill="none" stroke="#A7A9AC" stroke-width="0.7087" stroke-miterlimit="10" d="M297.362,81.86
			c-0.019-0.289,0.886-0.629,2.575-1.003"/>
		<path fill="none" stroke="#A7A9AC" stroke-width="0.7087" stroke-miterlimit="10" stroke-dasharray="5.9707,5.9707" d="
			M305.818,79.846c9.439-1.359,25.867-2.935,44.584-4.177c20.85-1.383,38.938-1.981,47.726-1.687"/>
		<path fill="none" stroke="#A7A9AC" stroke-width="0.7087" stroke-miterlimit="10" d="M401.109,74.146
			c1.725,0.148,2.666,0.365,2.686,0.654"/>
	</g>
	<path fill="none" stroke="#000000" stroke-width="1.0006" stroke-miterlimit="10" d="M297.332,81.32
		c-0.098,1.469,23.648,4.241,53.04,6.191c29.39,1.95,53.294,2.339,53.392,0.869"/>
	<g>
		<path fill="none" stroke="#A7A9AC" stroke-width="0.7087" stroke-miterlimit="10" d="M297.362,96.034
			c-0.019-0.289,0.886-0.629,2.575-1.003"/>
		<path fill="none" stroke="#A7A9AC" stroke-width="0.7087" stroke-miterlimit="10" stroke-dasharray="5.9707,5.9707" d="
			M305.818,94.019c9.439-1.359,25.867-2.935,44.584-4.177c20.85-1.383,38.938-1.981,47.726-1.687"/>
		<path fill="none" stroke="#A7A9AC" stroke-width="0.7087" stroke-miterlimit="10" d="M401.109,88.319
			c1.725,0.148,2.666,0.365,2.686,0.654"/>
	</g>
	<path fill="none" stroke="#000000" stroke-width="1.0006" stroke-miterlimit="10" d="M297.332,95.493
		c-0.098,1.469,23.648,4.241,53.04,6.191c29.39,1.95,53.294,2.339,53.392,0.869"/>
	<g>
		<path fill="none" stroke="#A7A9AC" stroke-width="0.7087" stroke-miterlimit="10" d="M297.362,110.207
			c-0.019-0.289,0.886-0.629,2.575-1.003"/>
		<path fill="none" stroke="#A7A9AC" stroke-width="0.7087" stroke-miterlimit="10" stroke-dasharray="5.9707,5.9707" d="
			M305.818,108.192c9.439-1.359,25.867-2.935,44.584-4.177c20.85-1.383,38.938-1.981,47.726-1.687"/>
		<path fill="none" stroke="#A7A9AC" stroke-width="0.7087" stroke-miterlimit="10" d="M401.109,102.492
			c1.725,0.148,2.666,0.365,2.686,0.654"/>
	</g>
	<path fill="none" stroke="#000000" stroke-width="1.0006" stroke-miterlimit="10" d="M297.332,109.667
		c-0.098,1.469,23.648,4.241,53.04,6.191c29.39,1.95,53.294,2.339,53.392,0.869"/>
	<g>
		<path fill="none" stroke="#A7A9AC" stroke-width="0.7087" stroke-miterlimit="10" d="M297.362,124.38
			c-0.019-0.289,0.886-0.629,2.575-1.003"/>
		<path fill="none" stroke="#A7A9AC" stroke-width="0.7087" stroke-miterlimit="10" stroke-dasharray="5.9707,5.9707" d="
			M305.818,122.366c9.439-1.359,25.867-2.935,44.584-4.177c20.85-1.383,38.938-1.981,47.726-1.687"/>
		<path fill="none" stroke="#A7A9AC" stroke-width="0.7087" stroke-miterlimit="10" d="M401.109,116.666
			c1.725,0.148,2.666,0.365,2.686,0.654"/>
	</g>
	<path fill="none" stroke="#000000" stroke-width="1.0006" stroke-miterlimit="10" d="M297.332,123.84
		c-0.098,1.469,23.648,4.241,53.04,6.191c29.39,1.95,53.294,2.339,53.392,0.869"/>
	<g>
		<path fill="none" stroke="#A7A9AC" stroke-width="0.7087" stroke-miterlimit="10" d="M297.362,138.554
			c-0.019-0.289,0.886-0.629,2.575-1.003"/>
		<path fill="none" stroke="#A7A9AC" stroke-width="0.7087" stroke-miterlimit="10" stroke-dasharray="5.9707,5.9707" d="
			M305.818,136.539c9.439-1.359,25.867-2.935,44.584-4.177c20.85-1.383,38.938-1.981,47.726-1.687"/>
		<path fill="none" stroke="#A7A9AC" stroke-width="0.7087" stroke-miterlimit="10" d="M401.109,130.839
			c1.725,0.148,2.666,0.365,2.686,0.654"/>
	</g>
	<path fill="none" stroke="#000000" stroke-width="1.0006" stroke-miterlimit="10" d="M297.332,138.013
		c-0.098,1.469,23.648,4.241,53.04,6.191c29.39,1.95,53.294,2.339,53.392,0.869"/>
	<g>
		<path fill="none" stroke="#A7A9AC" stroke-width="0.7087" stroke-miterlimit="10" d="M297.362,152.727
			c-0.019-0.289,0.886-0.629,2.575-1.003"/>
		<path fill="none" stroke="#A7A9AC" stroke-width="0.7087" stroke-miterlimit="10" stroke-dasharray="5.9707,5.9707" d="
			M305.818,150.712c9.439-1.359,25.867-2.935,44.584-4.177c20.85-1.383,38.938-1.981,47.726-1.687"/>
		<path fill="none" stroke="#A7A9AC" stroke-width="0.7087" stroke-miterlimit="10" d="M401.109,145.012
			c1.725,0.148,2.666,0.365,2.686,0.654"/>
	</g>
	<path fill="none" stroke="#000000" stroke-width="1.0006" stroke-miterlimit="10" d="M297.332,152.187
		c-0.098,1.469,23.648,4.241,53.04,6.191c29.39,1.95,53.294,2.339,53.392,0.869"/>
	<g>
		<path fill="none" stroke="#A7A9AC" stroke-width="0.7087" stroke-miterlimit="10" d="M297.362,166.9
			c-0.019-0.289,0.886-0.629,2.575-1.003"/>
		<path fill="none" stroke="#A7A9AC" stroke-width="0.7087" stroke-miterlimit="10" stroke-dasharray="5.9707,5.9707" d="
			M305.818,164.886c9.439-1.359,25.867-2.935,44.584-4.177c20.85-1.383,38.938-1.981,47.726-1.687"/>
		<path fill="none" stroke="#A7A9AC" stroke-width="0.7087" stroke-miterlimit="10" d="M401.109,159.186
			c1.725,0.148,2.666,0.365,2.686,0.654"/>
	</g>
	<path fill="none" stroke="#000000" stroke-width="1.0006" stroke-miterlimit="10" d="M297.332,166.36
		c-0.098,1.469,23.648,4.241,53.04,6.191c29.39,1.95,53.294,2.339,53.392,0.869"/>
	<g>
		<path fill="none" stroke="#A7A9AC" stroke-width="0.7087" stroke-miterlimit="10" d="M297.362,181.074
			c-0.019-0.289,0.886-0.629,2.575-1.003"/>
		<path fill="none" stroke="#A7A9AC" stroke-width="0.7087" stroke-miterlimit="10" stroke-dasharray="5.9707,5.9707" d="
			M305.818,179.059c9.439-1.359,25.867-2.935,44.584-4.177c20.85-1.383,38.938-1.981,47.726-1.687"/>
		<path fill="none" stroke="#A7A9AC" stroke-width="0.7087" stroke-miterlimit="10" d="M401.109,173.359
			c1.725,0.148,2.666,0.365,2.686,0.654"/>
	</g>
	<path fill="none" stroke="#000000" stroke-width="1.0006" stroke-miterlimit="10" d="M297.332,180.533
		c-0.098,1.469,23.648,4.241,53.04,6.191c29.39,1.95,53.294,2.339,53.392,0.869"/>
	<g>
		<path fill="none" stroke="#A7A9AC" stroke-width="0.7087" stroke-miterlimit="10" d="M297.362,195.247
			c-0.019-0.289,0.886-0.629,2.575-1.003"/>
		<path fill="none" stroke="#A7A9AC" stroke-width="0.7087" stroke-miterlimit="10" stroke-dasharray="5.9707,5.9707" d="
			M305.818,193.232c9.439-1.359,25.867-2.935,44.584-4.177c20.85-1.383,38.938-1.981,47.726-1.687"/>
		<path fill="none" stroke="#A7A9AC" stroke-width="0.7087" stroke-miterlimit="10" d="M401.109,187.532
			c1.725,0.148,2.666,0.365,2.686,0.654"/>
	</g>
	<path fill="none" stroke="#000000" stroke-width="1.0006" stroke-miterlimit="10" d="M404.842,195.72
		c0,1.473-23.879,2.667-53.334,2.667s-53.333-1.194-53.333-2.667"/>
</g>
<rect x="297.157" y="67.667" fill="none" stroke="#000000" stroke-width="2.7573" stroke-miterlimit="10" width="106.667" height="134.992"/>
<line fill="none" stroke="#000000" stroke-width="2.5516" stroke-miterlimit="10" x1="67.667" y1="74.333" x2="27.333" y2="74.333"/>
<line fill="none" stroke="#000000" stroke-width="2.126" stroke-miterlimit="10" x1="175.351" y1="195.72" x2="190.666" y2="195.72"/>
<line fill="none" stroke="#000000" stroke-width="2.7746" stroke-miterlimit="10" x1="297.157" y1="74.333" x2="268.5" y2="74.333"/>
<line fill="none" stroke="#000000" stroke-width="2.126" stroke-miterlimit="10" x1="404.842" y1="195.72" x2="417.332" y2="195.72"/>
<polyline fill="none" stroke="#000000" stroke-width="0.7087" stroke-linejoin="bevel" stroke-miterlimit="10" points="55.521,77 
	58.875,73.646 58.875,74.333 55.521,70.979 "/>
<polyline fill="none" stroke="#000000" stroke-width="0.7087" stroke-linejoin="bevel" stroke-miterlimit="10" points="
	287.068,76.919 290.422,73.565 290.422,74.252 287.068,70.898 "/>
<text transform="matrix(1 0 0 1 17.188 66.667)" font-family="'LMRoman10-Regular'" font-size="14.1732">V</text>
<text transform="matrix(0.583 0 0 0.583 24.9834 71.3867)" font-family="'LMRoman10-Regular'" font-size="14.1732">A</text>
<text transform="matrix(0.583 0 0 0.583 31.1807 71.3867)" font-family="'LMRoman10-Regular'" font-size="14.1732">1</text>
<text transform="matrix(1 0 0 1 253.8613 66.667)" font-family="'LMRoman10-Regular'" font-size="14.1732">V</text>
<text transform="matrix(0.583 0 0 0.583 261.6567 71.3867)" font-family="'LMRoman10-Regular'" font-size="14.1732">B</text>
<text transform="matrix(0.583 0 0 0.583 267.5068 71.3867)" font-family="'LMRoman10-Regular'" font-size="14.1732">1</text>
<text transform="matrix(1 0 0 1 186.354 191.2715)" font-family="'LMRoman10-Regular'" font-size="14.1732">V</text>
<text transform="matrix(0.583 0 0 0.583 194.1494 195.9912)" font-family="'LMRoman10-Regular'" font-size="14.1732">A</text>
<text transform="matrix(0.583 0 0 0.583 200.3467 195.9912)" font-family="'LMRoman10-Regular'" font-size="14.1732">2</text>
<text transform="matrix(1 0 0 1 413.8613 191.2715)" font-family="'LMRoman10-Regular'" font-size="14.1732">V</text>
<text transform="matrix(0.583 0 0 0.583 421.6562 195.9912)" font-family="'LMRoman10-Regular'" font-size="14.1732">B</text>
<text transform="matrix(0.583 0 0 0.583 427.5068 195.9912)" font-family="'LMRoman10-Regular'" font-size="14.1732">2</text>
<text transform="matrix(1 0 0 1 52.2183 65.6665)" font-family="'LMRoman10-Regular'" font-size="14.1732">I</text>
<text transform="matrix(0.583 0 0 0.583 57.3345 70.3862)" font-family="'LMRoman10-Regular'" font-size="14.1732">A</text>
<text transform="matrix(1 0 0 1 282.2617 64.667)" font-family="'LMRoman10-Regular'" font-size="14.1732">I</text>
<text transform="matrix(0.583 0 0 0.583 287.3789 69.3867)" font-family="'LMRoman10-Regular'" font-size="14.1732">B</text>
<text transform="matrix(0.583 0 0 0.583 85.166 232.9971)" font-family="'LMRoman10-Regular'" font-size="17.0079">Electromagnet A</text>
<text transform="matrix(0.583 0 0 0.583 314.8652 232.9971)" font-family="'LMRoman10-Regular'" font-size="17.0079">Electromagnet B</text>
<text transform="matrix(0.583 0 0 0.583 14.0913 26.6631)" font-family="'LMRoman10-Regular'" font-size="17.0079">String</text>
</svg>
