<?xml version="1.0" encoding="utf-8"?>
<!-- Generator: Adobe Illustrator 16.0.4, SVG Export Plug-In . SVG Version: 6.00 Build 0)  -->
<svg version="1.2" baseProfile="tiny" id="Layer_1" xmlns="http://www.w3.org/2000/svg" xmlns:xlink="http://www.w3.org/1999/xlink"
	 x="0px" y="0px" width="809.333px" height="424.333px" viewBox="0 0 809.333 424.333" xml:space="preserve">
<g>
	<polyline fill="none" stroke="#000000" stroke-width="2.8346" stroke-miterlimit="10" points="181.635,217.726 405.357,30 
		629.077,217.726 	"/>
</g>
<g>
	<polyline fill="none" stroke="#000000" stroke-width="2.8346" stroke-miterlimit="10" points="80.289,302.764 181.634,217.726 
		282.981,302.764 	"/>
</g>
<g>
	<polyline fill="none" stroke="#000000" stroke-width="2.8346" stroke-miterlimit="10" points="527.731,302.763 629.077,217.726 
		730.424,302.763 	"/>
</g>
<g>
	<polyline fill="none" stroke="#000000" stroke-width="2.8346" stroke-miterlimit="10" points="37.77,359.457 80.289,302.765 
		122.809,359.457 	"/>
</g>
<g>
	<polyline fill="none" stroke="#000000" stroke-width="2.8346" stroke-miterlimit="10" points="240.462,359.457 282.981,302.765 
		325.501,359.457 	"/>
</g>
<g>
	<polyline fill="none" stroke="#000000" stroke-width="2.8346" stroke-miterlimit="10" points="687.904,359.456 730.423,302.765 
		772.944,359.456 	"/>
</g>
<g>
	<polyline fill="none" stroke="#000000" stroke-width="2.8346" stroke-miterlimit="10" points="485.21,359.456 527.73,302.765 
		570.25,359.456 	"/>
</g>
<g>
	<path d="M376.61,9.871v16.585c0,1.219,0.028,2.608,0.113,3.544h-2.239l-0.113-2.381h-0.057c-0.766,1.531-2.438,2.693-4.678,2.693
		c-3.317,0-5.869-2.807-5.869-6.975c-0.028-4.564,2.807-7.371,6.152-7.371c2.098,0,3.516,0.992,4.14,2.098h0.057V9.871H376.61z
		 M374.116,21.863c0-0.312-0.028-0.737-0.114-1.049c-0.368-1.588-1.729-2.892-3.601-2.892c-2.579,0-4.11,2.268-4.11,5.302
		c0,2.778,1.36,5.075,4.054,5.075c1.673,0,3.204-1.105,3.657-2.977c0.086-0.34,0.114-0.681,0.114-1.078V21.863z"/>
	<path d="M382.578,30.053h-0.033l-1.867,1.008l-0.281-1.107l2.347-1.256h1.239v10.741h-1.404V30.053z"/>
</g>
<g>
	<path d="M155.852,216.339c-0.652,0.34-2.098,0.794-3.94,0.794c-4.14,0-6.833-2.807-6.833-7.003c0-4.224,2.892-7.286,7.371-7.286
		c1.475,0,2.778,0.369,3.459,0.709l-0.567,1.928c-0.595-0.34-1.53-0.652-2.892-0.652c-3.146,0-4.848,2.325-4.848,5.188
		c0,3.175,2.041,5.131,4.763,5.131c1.418,0,2.354-0.369,3.062-0.68L155.852,216.339z"/>
	<path d="M160.601,216.903h-0.033l-1.867,1.008l-0.281-1.107l2.347-1.256h1.239v10.741h-1.404V216.903z"/>
</g>
<g>
	<path d="M597.208,216.339c-0.652,0.34-2.098,0.794-3.941,0.794c-4.139,0-6.832-2.807-6.832-7.003c0-4.224,2.891-7.286,7.371-7.286
		c1.475,0,2.777,0.369,3.459,0.709l-0.568,1.928c-0.594-0.34-1.529-0.652-2.891-0.652c-3.146,0-4.848,2.325-4.848,5.188
		c0,3.175,2.041,5.131,4.762,5.131c1.418,0,2.354-0.369,3.062-0.68L597.208,216.339z"/>
	<path d="M598.799,226.289v-0.893l1.141-1.107c2.742-2.611,3.982-3.999,3.998-5.619c0-1.091-0.527-2.099-2.131-2.099
		c-0.975,0-1.785,0.496-2.281,0.909l-0.463-1.024c0.744-0.628,1.803-1.091,3.041-1.091c2.314,0,3.289,1.586,3.289,3.124
		c0,1.983-1.438,3.586-3.701,5.767l-0.859,0.793v0.033h4.824v1.207H598.799z"/>
</g>
<g>
	<path d="M44.646,302.001c0.057-0.936,0.113-2.325,0.113-3.544v-16.585h2.467v8.618h0.057c0.879-1.531,2.467-2.523,4.678-2.523
		c3.402,0,5.812,2.835,5.784,7.002c0,4.905-3.091,7.343-6.152,7.343c-1.984,0-3.572-0.766-4.593-2.58h-0.085l-0.113,2.269H44.646z
		 M47.226,296.501c0,0.312,0.057,0.624,0.113,0.907c0.482,1.729,1.928,2.92,3.742,2.92c2.608,0,4.168-2.126,4.168-5.273
		c0-2.75-1.418-5.104-4.083-5.104c-1.701,0-3.288,1.163-3.799,3.062c-0.057,0.283-0.142,0.624-0.142,1.021V296.501z"/>
	<path d="M62.719,302.055h-0.033l-1.867,1.008l-0.281-1.107l2.347-1.256h1.239v10.741h-1.404V302.055z"/>
</g>
<g>
	<path d="M240.979,302.334c0.057-0.936,0.113-2.325,0.113-3.545v-16.584h2.467v8.619h0.057c0.879-1.531,2.467-2.523,4.678-2.523
		c3.402,0,5.812,2.835,5.784,7.003c0,4.904-3.091,7.343-6.152,7.343c-1.984,0-3.572-0.766-4.593-2.58h-0.085l-0.113,2.269H240.979z
		 M243.559,296.834c0,0.312,0.057,0.623,0.113,0.906c0.482,1.73,1.928,2.92,3.742,2.92c2.608,0,4.168-2.125,4.168-5.272
		c0-2.75-1.418-5.104-4.083-5.104c-1.701,0-3.288,1.163-3.799,3.062c-0.057,0.284-0.142,0.625-0.142,1.021V296.834z"/>
	<path d="M255.895,311.773v-0.893l1.141-1.107c2.743-2.611,3.982-3.999,3.999-5.619c0-1.09-0.528-2.098-2.132-2.098
		c-0.975,0-1.784,0.495-2.28,0.908l-0.463-1.024c0.744-0.628,1.802-1.091,3.041-1.091c2.313,0,3.288,1.586,3.288,3.123
		c0,1.983-1.438,3.586-3.701,5.768l-0.859,0.793v0.033h4.825v1.207H255.895z"/>
</g>
<g>
	<path d="M492.312,302.334c0.057-0.936,0.113-2.324,0.113-3.544v-16.585h2.467v8.619h0.057c0.879-1.531,2.467-2.524,4.678-2.524
		c3.402,0,5.812,2.834,5.784,7.002c0,4.904-3.091,7.344-6.152,7.344c-1.984,0-3.572-0.766-4.593-2.58h-0.085l-0.113,2.268H492.312z
		 M494.892,296.834c0,0.312,0.057,0.623,0.113,0.907c0.482,1.729,1.928,2.92,3.742,2.92c2.608,0,4.168-2.126,4.168-5.272
		c0-2.75-1.418-5.104-4.083-5.104c-1.701,0-3.288,1.162-3.799,3.062c-0.057,0.284-0.142,0.624-0.142,1.021V296.834z"/>
	<path d="M507.576,310.104c0.413,0.265,1.371,0.677,2.38,0.677c1.867,0,2.445-1.189,2.429-2.082
		c-0.017-1.504-1.371-2.148-2.776-2.148h-0.81v-1.09h0.81c1.058,0,2.396-0.545,2.396-1.818c0-0.859-0.546-1.619-1.884-1.619
		c-0.859,0-1.686,0.381-2.148,0.711l-0.38-1.059c0.562-0.412,1.652-0.826,2.809-0.826c2.115,0,3.074,1.256,3.074,2.562
		c0,1.107-0.661,2.049-1.983,2.527v0.033c1.322,0.265,2.396,1.256,2.396,2.76c0,1.719-1.339,3.223-3.916,3.223
		c-1.207,0-2.265-0.38-2.793-0.727L507.576,310.104z"/>
</g>
<g>
	<path d="M690.645,302.334c0.057-0.936,0.113-2.325,0.113-3.545v-16.584h2.467v8.619h0.057c0.879-1.531,2.467-2.523,4.678-2.523
		c3.402,0,5.812,2.835,5.784,7.003c0,4.904-3.091,7.343-6.152,7.343c-1.984,0-3.572-0.766-4.593-2.58h-0.085l-0.113,2.269H690.645z
		 M693.225,296.834c0,0.312,0.057,0.623,0.113,0.906c0.482,1.73,1.928,2.92,3.742,2.92c2.608,0,4.168-2.125,4.168-5.272
		c0-2.75-1.418-5.104-4.083-5.104c-1.701,0-3.288,1.163-3.799,3.062c-0.057,0.284-0.142,0.625-0.142,1.021V296.834z"/>
	<path d="M710.056,311.773v-2.926h-4.99v-0.958l4.792-6.858h1.57v6.676h1.504v1.141h-1.504v2.926H710.056z M710.056,307.707v-3.586
		c0-0.561,0.017-1.123,0.05-1.686h-0.05c-0.33,0.629-0.595,1.092-0.893,1.587l-2.627,3.652v0.032H710.056z"/>
</g>
<g>
	<path d="M39.393,380.667l-0.199-1.729h-0.085c-0.765,1.078-2.239,2.041-4.195,2.041c-2.778,0-4.196-1.956-4.196-3.94
		c0-3.317,2.948-5.132,8.25-5.103v-0.284c0-1.134-0.312-3.175-3.118-3.175c-1.276,0-2.608,0.396-3.572,1.02l-0.567-1.644
		c1.134-0.737,2.778-1.22,4.508-1.22c4.196,0,5.217,2.863,5.217,5.613v5.133c0,1.189,0.057,2.353,0.227,3.288H39.393z
		 M39.023,373.664c-2.722-0.057-5.812,0.426-5.812,3.09c0,1.617,1.077,2.383,2.353,2.383c1.786,0,2.921-1.135,3.317-2.297
		c0.085-0.256,0.142-0.539,0.142-0.794V373.664z"/>
	<path d="M47.288,380.721h-0.033l-1.867,1.008l-0.281-1.107l2.347-1.256h1.239v10.741h-1.404V380.721z"/>
</g>
<g>
	<path d="M689.527,380.666l-0.199-1.73h-0.085c-0.765,1.078-2.239,2.042-4.195,2.042c-2.778,0-4.196-1.956-4.196-3.94
		c0-3.317,2.948-5.132,8.25-5.104v-0.283c0-1.135-0.312-3.176-3.118-3.176c-1.276,0-2.608,0.396-3.572,1.021l-0.567-1.644
		c1.134-0.738,2.778-1.22,4.508-1.22c4.196,0,5.217,2.863,5.217,5.613v5.132c0,1.19,0.057,2.354,0.227,3.289H689.527z
		 M689.158,373.663c-2.722-0.058-5.812,0.425-5.812,3.09c0,1.616,1.077,2.382,2.353,2.382c1.786,0,2.921-1.135,3.317-2.297
		c0.085-0.255,0.142-0.539,0.142-0.793V373.663z"/>
	<path d="M701.24,379.363v0.959l-4.677,9.783h-1.504l4.66-9.502v-0.033h-5.255v-1.207H701.24z"/>
</g>
<g>
	<path d="M574.963,380.666l-0.199-1.729h-0.085c-0.765,1.077-2.239,2.042-4.195,2.042c-2.778,0-4.196-1.957-4.196-3.941
		c0-3.316,2.948-5.131,8.25-5.104v-0.283c0-1.134-0.312-3.176-3.118-3.176c-1.276,0-2.608,0.397-3.572,1.021l-0.567-1.645
		c1.134-0.737,2.778-1.219,4.508-1.219c4.196,0,5.217,2.863,5.217,5.613v5.131c0,1.191,0.057,2.354,0.227,3.289H574.963z
		 M574.594,373.664c-2.722-0.058-5.812,0.425-5.812,3.09c0,1.615,1.077,2.381,2.353,2.381c1.786,0,2.921-1.134,3.317-2.296
		c0.085-0.255,0.142-0.539,0.142-0.794V373.664z"/>
	<path d="M585.833,380.389c-0.297-0.017-0.677,0-1.09,0.066c-2.281,0.38-3.487,2.049-3.735,3.816h0.05
		c0.513-0.677,1.404-1.238,2.595-1.238c1.9,0,3.239,1.371,3.239,3.47c0,1.966-1.339,3.784-3.57,3.784
		c-2.297,0-3.801-1.785-3.801-4.577c0-2.115,0.761-3.784,1.818-4.843c0.893-0.875,2.082-1.42,3.438-1.586
		c0.429-0.066,0.793-0.082,1.057-0.082V380.389z M585.419,386.586c0-1.537-0.875-2.463-2.214-2.463
		c-0.876,0-1.686,0.545-2.082,1.322c-0.1,0.165-0.165,0.38-0.165,0.645c0.032,1.768,0.843,3.074,2.362,3.074
		C584.577,389.164,585.419,388.123,585.419,386.586z"/>
</g>
<g>
	<path d="M486.833,380.668l-0.199-1.729h-0.085c-0.765,1.077-2.239,2.041-4.195,2.041c-2.778,0-4.196-1.957-4.196-3.941
		c0-3.316,2.948-5.131,8.25-5.103v-0.284c0-1.133-0.312-3.175-3.118-3.175c-1.276,0-2.608,0.397-3.572,1.021l-0.567-1.645
		c1.134-0.736,2.778-1.219,4.508-1.219c4.196,0,5.217,2.863,5.217,5.613v5.132c0,1.19,0.057,2.353,0.227,3.288H486.833z
		 M486.464,373.666c-2.722-0.057-5.812,0.426-5.812,3.09c0,1.616,1.077,2.382,2.353,2.382c1.786,0,2.921-1.134,3.317-2.296
		c0.085-0.256,0.142-0.539,0.142-0.795V373.666z"/>
	<path d="M497.984,380.59h-4.098l-0.414,2.76c0.248-0.033,0.479-0.066,0.876-0.066c0.826,0,1.653,0.182,2.313,0.578
		c0.843,0.479,1.537,1.404,1.537,2.76c0,2.099-1.669,3.668-3.999,3.668c-1.173,0-2.165-0.33-2.677-0.66l0.363-1.107
		c0.446,0.264,1.322,0.595,2.297,0.595c1.372,0,2.545-0.892,2.545-2.33c-0.017-1.388-0.941-2.38-3.09-2.38
		c-0.611,0-1.091,0.066-1.487,0.116l0.693-5.155h5.14V380.59z"/>
</g>
<g>
	<path d="M330.214,380.666l-0.199-1.729h-0.085c-0.765,1.077-2.239,2.041-4.195,2.041c-2.778,0-4.196-1.957-4.196-3.941
		c0-3.316,2.948-5.131,8.25-5.103v-0.284c0-1.133-0.312-3.175-3.118-3.175c-1.276,0-2.608,0.397-3.572,1.021l-0.567-1.645
		c1.134-0.736,2.778-1.219,4.508-1.219c4.196,0,5.217,2.863,5.217,5.613v5.132c0,1.19,0.057,2.353,0.227,3.288H330.214z
		 M329.845,373.664c-2.722-0.057-5.812,0.426-5.812,3.09c0,1.616,1.077,2.382,2.353,2.382c1.786,0,2.921-1.134,3.317-2.296
		c0.085-0.256,0.142-0.539,0.142-0.795V373.664z"/>
	<path d="M339.448,390.105v-2.924h-4.99v-0.959l4.792-6.857h1.57v6.676h1.504v1.141h-1.504v2.924H339.448z M339.448,386.041v-3.586
		c0-0.562,0.017-1.124,0.05-1.686h-0.05c-0.33,0.627-0.595,1.09-0.893,1.586l-2.627,3.652v0.033H339.448z"/>
</g>
<g>
	<path d="M127.522,380.666l-0.199-1.729h-0.085c-0.765,1.077-2.239,2.041-4.195,2.041c-2.778,0-4.196-1.957-4.196-3.941
		c0-3.316,2.948-5.131,8.25-5.103v-0.284c0-1.133-0.312-3.175-3.118-3.175c-1.276,0-2.608,0.397-3.572,1.021l-0.567-1.645
		c1.134-0.736,2.778-1.219,4.508-1.219c4.196,0,5.217,2.863,5.217,5.613v5.132c0,1.19,0.057,2.353,0.227,3.288H127.522z
		 M127.153,373.664c-2.722-0.057-5.812,0.426-5.812,3.09c0,1.616,1.077,2.382,2.353,2.382c1.786,0,2.921-1.134,3.317-2.296
		c0.085-0.256,0.142-0.539,0.142-0.795V373.664z"/>
	<path d="M132.26,390.105v-0.893l1.141-1.106c2.743-2.61,3.982-3.999,3.999-5.618c0-1.092-0.528-2.1-2.132-2.1
		c-0.975,0-1.784,0.496-2.28,0.909l-0.463-1.024c0.744-0.628,1.802-1.091,3.041-1.091c2.313,0,3.288,1.587,3.288,3.124
		c0,1.982-1.438,3.586-3.701,5.767l-0.859,0.794v0.032h4.825v1.206H132.26z"/>
</g>
<g>
	<path d="M242.085,380.668l-0.199-1.73h-0.085c-0.765,1.078-2.239,2.042-4.195,2.042c-2.778,0-4.196-1.956-4.196-3.94
		c0-3.317,2.948-5.132,8.25-5.104v-0.283c0-1.135-0.312-3.176-3.118-3.176c-1.276,0-2.608,0.396-3.572,1.021l-0.567-1.644
		c1.134-0.738,2.778-1.22,4.508-1.22c4.196,0,5.217,2.863,5.217,5.613v5.132c0,1.19,0.057,2.354,0.227,3.289H242.085z
		 M241.716,373.665c-2.722-0.058-5.812,0.425-5.812,3.09c0,1.616,1.077,2.382,2.353,2.382c1.786,0,2.921-1.135,3.317-2.297
		c0.085-0.255,0.142-0.539,0.142-0.793V373.665z"/>
	<path d="M247.171,388.438c0.413,0.266,1.371,0.678,2.38,0.678c1.867,0,2.445-1.189,2.429-2.082
		c-0.017-1.504-1.371-2.148-2.776-2.148h-0.81v-1.09h0.81c1.058,0,2.396-0.547,2.396-1.818c0-0.859-0.546-1.619-1.884-1.619
		c-0.859,0-1.686,0.38-2.148,0.71l-0.38-1.058c0.562-0.413,1.652-0.826,2.809-0.826c2.115,0,3.074,1.256,3.074,2.562
		c0,1.105-0.661,2.049-1.983,2.527v0.033c1.322,0.264,2.396,1.256,2.396,2.76c0,1.719-1.339,3.223-3.916,3.223
		c-1.207,0-2.265-0.381-2.793-0.727L247.171,388.438z"/>
</g>
<g>
	<path d="M777.657,380.666l-0.199-1.729h-0.085c-0.765,1.077-2.239,2.042-4.195,2.042c-2.778,0-4.196-1.957-4.196-3.941
		c0-3.316,2.948-5.131,8.25-5.104v-0.283c0-1.134-0.312-3.176-3.118-3.176c-1.276,0-2.608,0.397-3.572,1.021l-0.567-1.645
		c1.134-0.737,2.778-1.219,4.508-1.219c4.196,0,5.217,2.863,5.217,5.613v5.131c0,1.191,0.057,2.354,0.227,3.289H777.657z
		 M777.288,373.664c-2.722-0.058-5.812,0.425-5.812,3.09c0,1.615,1.077,2.381,2.353,2.381c1.786,0,2.921-1.134,3.317-2.296
		c0.085-0.255,0.142-0.539,0.142-0.794V373.664z"/>
	<path d="M782.263,387.379c0-1.355,0.81-2.313,2.132-2.875l-0.017-0.051c-1.189-0.561-1.702-1.486-1.702-2.412
		c0-1.702,1.438-2.859,3.321-2.859c2.083,0,3.124,1.307,3.124,2.645c0,0.909-0.446,1.884-1.769,2.512v0.05
		c1.339,0.528,2.165,1.471,2.165,2.776c0,1.867-1.604,3.123-3.652,3.123C783.619,390.287,782.263,388.949,782.263,387.379z
		 M788.047,387.312c0-1.305-0.909-1.934-2.363-2.346c-1.256,0.363-1.934,1.189-1.934,2.214c-0.05,1.091,0.776,2.049,2.148,2.049
		C787.205,389.229,788.047,388.42,788.047,387.312z M784.048,381.941c0,1.074,0.81,1.653,2.049,1.983
		c0.926-0.313,1.636-0.975,1.636-1.95c0-0.859-0.512-1.752-1.817-1.752C784.709,380.223,784.048,381.017,784.048,381.941z"/>
</g>
<g>
	<path d="M430.823,34.666c-1.315,0-2.359-0.62-3.132-1.861s-1.159-2.942-1.159-5.104c0-2.154,0.387-3.852,1.159-5.093
		c0.772-1.241,1.816-1.862,3.132-1.862c1.314,0,2.359,0.623,3.136,1.867c0.776,1.245,1.165,2.94,1.165,5.088
		c0,2.146-0.389,3.845-1.165,5.093S432.137,34.666,430.823,34.666z M430.823,22.246c-0.805,0-1.431,0.476-1.878,1.428
		c-0.448,0.952-0.672,2.297-0.672,4.032c0,1.743,0.224,3.093,0.672,4.048c0.447,0.956,1.073,1.434,1.878,1.434
		c0.811,0,1.44-0.478,1.888-1.434c0.447-0.955,0.672-2.305,0.672-4.048c0-1.735-0.225-3.08-0.672-4.032
		C432.263,22.722,431.633,22.246,430.823,22.246z"/>
	<path d="M443.715,34.666c-1.315,0-2.359-0.62-3.132-1.861s-1.159-2.942-1.159-5.104c0-2.154,0.387-3.852,1.159-5.093
		c0.772-1.241,1.816-1.862,3.132-1.862c1.314,0,2.359,0.623,3.136,1.867c0.776,1.245,1.165,2.94,1.165,5.088
		c0,2.146-0.389,3.845-1.165,5.093S445.03,34.666,443.715,34.666z M443.715,22.246c-0.805,0-1.431,0.476-1.878,1.428
		c-0.448,0.952-0.672,2.297-0.672,4.032c0,1.743,0.224,3.093,0.672,4.048c0.447,0.956,1.073,1.434,1.878,1.434
		c0.811,0,1.44-0.478,1.888-1.434c0.447-0.955,0.672-2.305,0.672-4.048c0-1.735-0.225-3.08-0.672-4.032
		C445.156,22.722,444.526,22.246,443.715,22.246z"/>
	<path d="M456.608,34.666c-1.315,0-2.359-0.62-3.132-1.861s-1.159-2.942-1.159-5.104c0-2.154,0.387-3.852,1.159-5.093
		c0.772-1.241,1.816-1.862,3.132-1.862c1.314,0,2.359,0.623,3.136,1.867c0.776,1.245,1.165,2.94,1.165,5.088
		c0,2.146-0.389,3.845-1.165,5.093S457.922,34.666,456.608,34.666z M456.608,22.246c-0.805,0-1.431,0.476-1.878,1.428
		c-0.448,0.952-0.672,2.297-0.672,4.032c0,1.743,0.224,3.093,0.672,4.048c0.447,0.956,1.073,1.434,1.878,1.434
		c0.811,0,1.44-0.478,1.888-1.434c0.447-0.955,0.672-2.305,0.672-4.048c0-1.735-0.225-3.08-0.672-4.032
		C458.048,22.722,457.418,22.246,456.608,22.246z"/>
	<path d="M466.992,23.064c-0.091,0.014-0.159,0.024-0.204,0.031c-0.046,0.008-0.086,0.011-0.121,0.011
		c-0.217,0-0.394-0.062-0.529-0.184c-0.137-0.122-0.205-0.285-0.205-0.488c0-0.168,0.06-0.315,0.179-0.44
		c0.119-0.126,0.29-0.221,0.514-0.284l3.116-0.839c0.076-0.021,0.151-0.037,0.226-0.047c0.073-0.01,0.148-0.016,0.225-0.016
		c0.133,0,0.238,0.061,0.315,0.184c0.076,0.123,0.115,0.289,0.115,0.498v11.35h1.679c0.622,0,1.018,0.051,1.185,0.152
		c0.168,0.102,0.252,0.292,0.252,0.572c0,0.251-0.069,0.44-0.21,0.566c-0.14,0.126-0.35,0.188-0.629,0.188h-6.273
		c-0.279,0-0.489-0.062-0.629-0.188c-0.141-0.126-0.21-0.315-0.21-0.566c0-0.28,0.084-0.471,0.252-0.572s0.562-0.152,1.186-0.152
		h1.741V22.592L466.992,23.064z"/>
</g>
<g>
	<path d="M208.858,225.666c-1.315,0-2.359-0.62-3.132-1.861s-1.159-2.942-1.159-5.104c0-2.154,0.387-3.852,1.159-5.093
		c0.772-1.241,1.816-1.862,3.132-1.862c1.314,0,2.359,0.623,3.136,1.867c0.776,1.245,1.165,2.94,1.165,5.088
		c0,2.146-0.389,3.845-1.165,5.093S210.173,225.666,208.858,225.666z M208.858,213.246c-0.805,0-1.431,0.476-1.878,1.428
		c-0.448,0.952-0.672,2.297-0.672,4.032c0,1.743,0.224,3.093,0.672,4.048c0.447,0.956,1.073,1.434,1.878,1.434
		c0.811,0,1.44-0.478,1.888-1.434c0.447-0.955,0.672-2.305,0.672-4.048c0-1.735-0.225-3.08-0.672-4.032
		C210.299,213.722,209.669,213.246,208.858,213.246z"/>
	<path d="M221.751,225.666c-1.315,0-2.359-0.62-3.132-1.861s-1.159-2.942-1.159-5.104c0-2.154,0.387-3.852,1.159-5.093
		c0.772-1.241,1.816-1.862,3.132-1.862c1.314,0,2.359,0.623,3.136,1.867c0.776,1.245,1.165,2.94,1.165,5.088
		c0,2.146-0.389,3.845-1.165,5.093S223.065,225.666,221.751,225.666z M221.751,213.246c-0.805,0-1.431,0.476-1.878,1.428
		c-0.448,0.952-0.672,2.297-0.672,4.032c0,1.743,0.224,3.093,0.672,4.048c0.447,0.956,1.073,1.434,1.878,1.434
		c0.811,0,1.44-0.478,1.888-1.434c0.447-0.955,0.672-2.305,0.672-4.048c0-1.735-0.225-3.08-0.672-4.032
		C223.191,213.722,222.562,213.246,221.751,213.246z"/>
	<path d="M232.136,214.064c-0.091,0.014-0.159,0.024-0.204,0.031c-0.046,0.008-0.086,0.011-0.121,0.011
		c-0.217,0-0.394-0.062-0.529-0.184c-0.137-0.122-0.205-0.285-0.205-0.488c0-0.168,0.06-0.315,0.179-0.44
		c0.119-0.126,0.29-0.221,0.514-0.284l3.116-0.839c0.076-0.021,0.151-0.037,0.226-0.047c0.073-0.01,0.148-0.016,0.225-0.016
		c0.133,0,0.238,0.061,0.315,0.184c0.076,0.123,0.115,0.289,0.115,0.498v11.35h1.679c0.622,0,1.018,0.051,1.185,0.152
		c0.168,0.102,0.252,0.292,0.252,0.572c0,0.251-0.069,0.44-0.21,0.566c-0.14,0.126-0.35,0.188-0.629,0.188h-6.273
		c-0.279,0-0.489-0.062-0.629-0.188c-0.141-0.126-0.21-0.315-0.21-0.566c0-0.28,0.084-0.471,0.252-0.572s0.562-0.152,1.186-0.152
		h1.741v-10.249L232.136,214.064z"/>
	<path d="M247.535,225.666c-1.315,0-2.359-0.62-3.132-1.861s-1.159-2.942-1.159-5.104c0-2.154,0.387-3.852,1.159-5.093
		c0.772-1.241,1.816-1.862,3.132-1.862c1.314,0,2.359,0.623,3.136,1.867c0.776,1.245,1.165,2.94,1.165,5.088
		c0,2.146-0.389,3.845-1.165,5.093S248.85,225.666,247.535,225.666z M247.535,213.246c-0.805,0-1.431,0.476-1.878,1.428
		c-0.448,0.952-0.672,2.297-0.672,4.032c0,1.743,0.224,3.093,0.672,4.048c0.447,0.956,1.073,1.434,1.878,1.434
		c0.811,0,1.44-0.478,1.888-1.434c0.447-0.955,0.672-2.305,0.672-4.048c0-1.735-0.225-3.08-0.672-4.032
		C248.976,213.722,248.346,213.246,247.535,213.246z"/>
</g>
<g>
	<path d="M649.524,221.666c-1.314,0-2.359-0.62-3.131-1.861c-0.773-1.241-1.16-2.942-1.16-5.104c0-2.154,0.387-3.852,1.16-5.093
		c0.771-1.241,1.816-1.862,3.131-1.862s2.359,0.623,3.137,1.867c0.775,1.245,1.164,2.94,1.164,5.088
		c0,2.146-0.389,3.845-1.164,5.093C651.883,221.042,650.838,221.666,649.524,221.666z M649.524,209.246
		c-0.805,0-1.43,0.476-1.877,1.428c-0.449,0.952-0.672,2.297-0.672,4.032c0,1.743,0.223,3.093,0.672,4.048
		c0.447,0.956,1.072,1.434,1.877,1.434c0.811,0,1.441-0.478,1.889-1.434c0.447-0.955,0.672-2.305,0.672-4.048
		c0-1.735-0.225-3.08-0.672-4.032C650.965,209.722,650.334,209.246,649.524,209.246z"/>
	<path d="M662.417,221.666c-1.314,0-2.359-0.62-3.131-1.861c-0.773-1.241-1.16-2.942-1.16-5.104c0-2.154,0.387-3.852,1.16-5.093
		c0.771-1.241,1.816-1.862,3.131-1.862s2.359,0.623,3.137,1.867c0.775,1.245,1.164,2.94,1.164,5.088
		c0,2.146-0.389,3.845-1.164,5.093C664.776,221.042,663.731,221.666,662.417,221.666z M662.417,209.246
		c-0.805,0-1.43,0.476-1.877,1.428c-0.449,0.952-0.672,2.297-0.672,4.032c0,1.743,0.223,3.093,0.672,4.048
		c0.447,0.956,1.072,1.434,1.877,1.434c0.811,0,1.441-0.478,1.889-1.434c0.447-0.955,0.672-2.305,0.672-4.048
		c0-1.735-0.225-3.08-0.672-4.032C663.858,209.722,663.227,209.246,662.417,209.246z"/>
	<path d="M672.801,210.064c-0.09,0.014-0.158,0.024-0.203,0.031c-0.047,0.008-0.086,0.011-0.121,0.011
		c-0.217,0-0.395-0.062-0.529-0.184c-0.137-0.122-0.205-0.285-0.205-0.488c0-0.168,0.059-0.315,0.178-0.44
		c0.119-0.126,0.291-0.221,0.514-0.284l3.117-0.839c0.076-0.021,0.15-0.037,0.225-0.047c0.074-0.01,0.148-0.016,0.225-0.016
		c0.133,0,0.238,0.061,0.316,0.184c0.076,0.123,0.115,0.289,0.115,0.498v11.35h1.678c0.623,0,1.018,0.051,1.186,0.152
		s0.252,0.292,0.252,0.572c0,0.251-0.07,0.44-0.211,0.566c-0.139,0.126-0.35,0.188-0.629,0.188h-6.273
		c-0.279,0-0.488-0.062-0.629-0.188s-0.209-0.315-0.209-0.566c0-0.28,0.084-0.471,0.252-0.572s0.562-0.152,1.186-0.152h1.74v-10.249
		L672.801,210.064z"/>
	<path d="M685.694,210.064c-0.092,0.014-0.16,0.024-0.205,0.031c-0.045,0.008-0.086,0.011-0.121,0.011
		c-0.217,0-0.393-0.062-0.529-0.184s-0.205-0.285-0.205-0.488c0-0.168,0.061-0.315,0.18-0.44c0.119-0.126,0.289-0.221,0.514-0.284
		l3.115-0.839c0.076-0.021,0.152-0.037,0.227-0.047c0.072-0.01,0.148-0.016,0.225-0.016c0.133,0,0.238,0.061,0.314,0.184
		s0.115,0.289,0.115,0.498v11.35h1.68c0.621,0,1.018,0.051,1.184,0.152c0.168,0.102,0.252,0.292,0.252,0.572
		c0,0.251-0.068,0.44-0.209,0.566s-0.35,0.188-0.629,0.188h-6.273c-0.279,0-0.49-0.062-0.629-0.188
		c-0.141-0.126-0.211-0.315-0.211-0.566c0-0.28,0.084-0.471,0.252-0.572s0.562-0.152,1.186-0.152h1.742v-10.249L685.694,210.064z"/>
</g>
<g>
	<path d="M102.192,304.999c-1.315,0-2.359-0.62-3.132-1.861s-1.159-2.942-1.159-5.104c0-2.154,0.387-3.852,1.159-5.093
		c0.772-1.242,1.816-1.862,3.132-1.862c1.314,0,2.359,0.622,3.136,1.867s1.165,2.94,1.165,5.088c0,2.146-0.389,3.845-1.165,5.093
		S103.506,304.999,102.192,304.999z M102.192,292.579c-0.805,0-1.431,0.476-1.878,1.428c-0.448,0.952-0.672,2.297-0.672,4.032
		c0,1.743,0.224,3.093,0.672,4.048c0.447,0.956,1.073,1.434,1.878,1.434c0.811,0,1.44-0.478,1.888-1.434
		c0.447-0.955,0.672-2.305,0.672-4.048c0-1.735-0.225-3.08-0.672-4.032S103.002,292.579,102.192,292.579z"/>
	<path d="M112.577,293.397c-0.091,0.014-0.159,0.024-0.204,0.031c-0.046,0.008-0.086,0.011-0.121,0.011
		c-0.217,0-0.394-0.062-0.529-0.184c-0.137-0.122-0.205-0.285-0.205-0.488c0-0.168,0.06-0.314,0.179-0.439
		c0.119-0.127,0.29-0.221,0.514-0.284l3.116-0.839c0.076-0.021,0.151-0.037,0.226-0.047c0.073-0.011,0.148-0.016,0.225-0.016
		c0.133,0,0.238,0.061,0.315,0.184c0.076,0.122,0.115,0.288,0.115,0.498v11.35h1.679c0.622,0,1.018,0.051,1.185,0.152
		c0.168,0.102,0.252,0.292,0.252,0.572c0,0.251-0.069,0.44-0.21,0.566c-0.14,0.126-0.35,0.188-0.629,0.188h-6.273
		c-0.279,0-0.489-0.062-0.629-0.188c-0.141-0.126-0.21-0.315-0.21-0.566c0-0.28,0.084-0.471,0.252-0.572s0.562-0.152,1.186-0.152
		h1.741v-10.248L112.577,293.397z"/>
	<path d="M127.977,304.999c-1.315,0-2.359-0.62-3.132-1.861s-1.159-2.942-1.159-5.104c0-2.154,0.387-3.852,1.159-5.093
		c0.772-1.242,1.816-1.862,3.132-1.862c1.314,0,2.359,0.622,3.136,1.867s1.165,2.94,1.165,5.088c0,2.146-0.389,3.845-1.165,5.093
		S129.292,304.999,127.977,304.999z M127.977,292.579c-0.805,0-1.431,0.476-1.878,1.428c-0.448,0.952-0.672,2.297-0.672,4.032
		c0,1.743,0.224,3.093,0.672,4.048c0.447,0.956,1.073,1.434,1.878,1.434c0.811,0,1.44-0.478,1.888-1.434
		c0.447-0.955,0.672-2.305,0.672-4.048c0-1.735-0.225-3.08-0.672-4.032S128.788,292.579,127.977,292.579z"/>
	<path d="M140.869,304.999c-1.315,0-2.359-0.62-3.132-1.861s-1.159-2.942-1.159-5.104c0-2.154,0.387-3.852,1.159-5.093
		c0.772-1.242,1.816-1.862,3.132-1.862c1.314,0,2.359,0.622,3.136,1.867s1.165,2.94,1.165,5.088c0,2.146-0.389,3.845-1.165,5.093
		S142.183,304.999,140.869,304.999z M140.869,292.579c-0.805,0-1.431,0.476-1.878,1.428c-0.448,0.952-0.672,2.297-0.672,4.032
		c0,1.743,0.224,3.093,0.672,4.048c0.447,0.956,1.073,1.434,1.878,1.434c0.811,0,1.44-0.478,1.888-1.434
		c0.447-0.955,0.672-2.305,0.672-4.048c0-1.735-0.225-3.08-0.672-4.032S141.679,292.579,140.869,292.579z"/>
</g>
<g>
	<path d="M298.859,304.998c-1.315,0-2.359-0.619-3.132-1.861c-0.772-1.24-1.159-2.941-1.159-5.104c0-2.154,0.387-3.852,1.159-5.093
		s1.816-1.862,3.132-1.862c1.314,0,2.359,0.623,3.136,1.867c0.776,1.246,1.165,2.941,1.165,5.088s-0.389,3.846-1.165,5.094
		S300.173,304.998,298.859,304.998z M298.859,292.578c-0.805,0-1.431,0.477-1.878,1.428c-0.448,0.953-0.672,2.297-0.672,4.033
		c0,1.742,0.224,3.092,0.672,4.047c0.447,0.957,1.073,1.434,1.878,1.434c0.811,0,1.44-0.477,1.888-1.434
		c0.447-0.955,0.672-2.305,0.672-4.047c0-1.736-0.225-3.08-0.672-4.033C300.299,293.055,299.669,292.578,298.859,292.578z"/>
	<path d="M309.244,293.396c-0.091,0.014-0.159,0.025-0.204,0.031c-0.046,0.008-0.086,0.012-0.121,0.012
		c-0.217,0-0.394-0.062-0.529-0.184c-0.137-0.123-0.205-0.285-0.205-0.488c0-0.168,0.06-0.314,0.179-0.44s0.29-0.221,0.514-0.284
		l3.116-0.838c0.076-0.021,0.151-0.037,0.226-0.048c0.073-0.011,0.148-0.016,0.225-0.016c0.133,0,0.238,0.062,0.315,0.184
		c0.076,0.122,0.115,0.288,0.115,0.498v11.351h1.679c0.622,0,1.018,0.051,1.185,0.152c0.168,0.102,0.252,0.291,0.252,0.572
		c0,0.25-0.069,0.439-0.21,0.566c-0.14,0.125-0.35,0.188-0.629,0.188h-6.273c-0.279,0-0.489-0.062-0.629-0.188
		c-0.141-0.127-0.21-0.316-0.21-0.566c0-0.281,0.084-0.471,0.252-0.572s0.562-0.152,1.186-0.152h1.741v-10.249L309.244,293.396z"/>
	<path d="M324.644,304.998c-1.315,0-2.359-0.619-3.132-1.861c-0.772-1.24-1.159-2.941-1.159-5.104c0-2.154,0.387-3.852,1.159-5.093
		s1.816-1.862,3.132-1.862c1.314,0,2.359,0.623,3.136,1.867c0.776,1.246,1.165,2.941,1.165,5.088s-0.389,3.846-1.165,5.094
		S325.958,304.998,324.644,304.998z M324.644,292.578c-0.805,0-1.431,0.477-1.878,1.428c-0.448,0.953-0.672,2.297-0.672,4.033
		c0,1.742,0.224,3.092,0.672,4.047c0.447,0.957,1.073,1.434,1.878,1.434c0.811,0,1.44-0.477,1.888-1.434
		c0.447-0.955,0.672-2.305,0.672-4.047c0-1.736-0.225-3.08-0.672-4.033C326.084,293.055,325.455,292.578,324.644,292.578z"/>
	<path d="M335.028,293.396c-0.091,0.014-0.159,0.025-0.204,0.031c-0.046,0.008-0.086,0.012-0.121,0.012
		c-0.217,0-0.394-0.062-0.529-0.184c-0.137-0.123-0.205-0.285-0.205-0.488c0-0.168,0.06-0.314,0.179-0.44s0.29-0.221,0.514-0.284
		l3.116-0.838c0.076-0.021,0.151-0.037,0.226-0.048c0.073-0.011,0.148-0.016,0.225-0.016c0.133,0,0.238,0.062,0.315,0.184
		c0.076,0.122,0.115,0.288,0.115,0.498v11.351h1.679c0.622,0,1.018,0.051,1.185,0.152c0.168,0.102,0.252,0.291,0.252,0.572
		c0,0.25-0.069,0.439-0.21,0.566c-0.14,0.125-0.35,0.188-0.629,0.188h-6.273c-0.279,0-0.489-0.062-0.629-0.188
		c-0.141-0.127-0.21-0.316-0.21-0.566c0-0.281,0.084-0.471,0.252-0.572s0.562-0.152,1.186-0.152H337v-10.249L335.028,293.396z"/>
</g>
<g>
	<path d="M554.859,304.998c-1.315,0-2.359-0.619-3.132-1.861c-0.772-1.24-1.159-2.941-1.159-5.104c0-2.154,0.387-3.852,1.159-5.093
		s1.816-1.862,3.132-1.862c1.314,0,2.359,0.623,3.136,1.867c0.776,1.246,1.165,2.941,1.165,5.088s-0.389,3.846-1.165,5.094
		S556.173,304.998,554.859,304.998z M554.859,292.578c-0.805,0-1.431,0.477-1.878,1.428c-0.448,0.953-0.672,2.297-0.672,4.033
		c0,1.742,0.224,3.092,0.672,4.047c0.447,0.957,1.073,1.434,1.878,1.434c0.811,0,1.44-0.477,1.888-1.434
		c0.447-0.955,0.672-2.305,0.672-4.047c0-1.736-0.225-3.08-0.672-4.033C556.299,293.055,555.669,292.578,554.859,292.578z"/>
	<path d="M565.244,293.396c-0.091,0.014-0.159,0.025-0.204,0.031c-0.046,0.008-0.086,0.012-0.121,0.012
		c-0.217,0-0.394-0.062-0.529-0.184c-0.137-0.123-0.205-0.285-0.205-0.488c0-0.168,0.06-0.314,0.179-0.44s0.29-0.221,0.514-0.284
		l3.116-0.838c0.076-0.021,0.151-0.037,0.226-0.048c0.073-0.011,0.148-0.016,0.225-0.016c0.133,0,0.238,0.062,0.315,0.184
		c0.076,0.122,0.115,0.288,0.115,0.498v11.351h1.679c0.622,0,1.018,0.051,1.185,0.152c0.168,0.102,0.252,0.291,0.252,0.572
		c0,0.25-0.069,0.439-0.21,0.566c-0.14,0.125-0.35,0.188-0.629,0.188h-6.273c-0.279,0-0.489-0.062-0.629-0.188
		c-0.141-0.127-0.21-0.316-0.21-0.566c0-0.281,0.084-0.471,0.252-0.572s0.562-0.152,1.186-0.152h1.741v-10.249L565.244,293.396z"/>
	<path d="M578.136,293.396c-0.091,0.014-0.159,0.025-0.204,0.031c-0.046,0.008-0.086,0.012-0.121,0.012
		c-0.217,0-0.394-0.062-0.529-0.184c-0.137-0.123-0.205-0.285-0.205-0.488c0-0.168,0.06-0.314,0.179-0.44s0.29-0.221,0.514-0.284
		l3.116-0.838c0.076-0.021,0.151-0.037,0.226-0.048c0.073-0.011,0.148-0.016,0.225-0.016c0.133,0,0.238,0.062,0.315,0.184
		c0.076,0.122,0.115,0.288,0.115,0.498v11.351h1.679c0.622,0,1.018,0.051,1.185,0.152c0.168,0.102,0.252,0.291,0.252,0.572
		c0,0.25-0.069,0.439-0.21,0.566c-0.14,0.125-0.35,0.188-0.629,0.188h-6.273c-0.279,0-0.489-0.062-0.629-0.188
		c-0.141-0.127-0.21-0.316-0.21-0.566c0-0.281,0.084-0.471,0.252-0.572s0.562-0.152,1.186-0.152h1.741v-10.249L578.136,293.396z"/>
	<path d="M593.536,304.998c-1.315,0-2.359-0.619-3.132-1.861c-0.772-1.24-1.159-2.941-1.159-5.104c0-2.154,0.387-3.852,1.159-5.093
		s1.816-1.862,3.132-1.862c1.314,0,2.359,0.623,3.136,1.867c0.776,1.246,1.165,2.941,1.165,5.088s-0.389,3.846-1.165,5.094
		S594.85,304.998,593.536,304.998z M593.536,292.578c-0.805,0-1.431,0.477-1.878,1.428c-0.448,0.953-0.672,2.297-0.672,4.033
		c0,1.742,0.224,3.092,0.672,4.047c0.447,0.957,1.073,1.434,1.878,1.434c0.811,0,1.44-0.477,1.888-1.434
		c0.447-0.955,0.672-2.305,0.672-4.047c0-1.736-0.225-3.08-0.672-4.033C594.976,293.055,594.346,292.578,593.536,292.578z"/>
</g>
<g>
	<path d="M748.859,304.998c-1.315,0-2.359-0.621-3.132-1.861c-0.772-1.242-1.159-2.943-1.159-5.104c0-2.154,0.387-3.852,1.159-5.094
		c0.772-1.241,1.816-1.861,3.132-1.861c1.314,0,2.359,0.622,3.136,1.867c0.776,1.244,1.165,2.939,1.165,5.088
		c0,2.146-0.389,3.844-1.165,5.092S750.173,304.998,748.859,304.998z M748.859,292.578c-0.805,0-1.431,0.476-1.878,1.428
		c-0.448,0.951-0.672,2.297-0.672,4.031c0,1.744,0.224,3.094,0.672,4.049c0.447,0.955,1.073,1.434,1.878,1.434
		c0.811,0,1.44-0.479,1.888-1.434s0.672-2.305,0.672-4.049c0-1.734-0.225-3.08-0.672-4.031
		C750.299,293.054,749.669,292.578,748.859,292.578z"/>
	<path d="M759.244,293.396c-0.091,0.014-0.159,0.023-0.204,0.031c-0.046,0.008-0.086,0.01-0.121,0.01
		c-0.217,0-0.394-0.061-0.529-0.184c-0.137-0.121-0.205-0.285-0.205-0.487c0-0.168,0.06-0.315,0.179-0.44
		c0.119-0.126,0.29-0.221,0.514-0.283l3.116-0.84c0.076-0.021,0.151-0.036,0.226-0.047c0.073-0.01,0.148-0.016,0.225-0.016
		c0.133,0,0.238,0.061,0.315,0.184c0.076,0.123,0.115,0.289,0.115,0.498v11.35h1.679c0.622,0,1.018,0.051,1.185,0.152
		c0.168,0.102,0.252,0.293,0.252,0.572c0,0.252-0.069,0.441-0.21,0.566c-0.14,0.127-0.35,0.189-0.629,0.189h-6.273
		c-0.279,0-0.489-0.062-0.629-0.189c-0.141-0.125-0.21-0.314-0.21-0.566c0-0.279,0.084-0.471,0.252-0.572s0.562-0.152,1.186-0.152
		h1.741v-10.248L759.244,293.396z"/>
	<path d="M772.136,293.396c-0.091,0.014-0.159,0.023-0.204,0.031c-0.046,0.008-0.086,0.01-0.121,0.01
		c-0.217,0-0.394-0.061-0.529-0.184c-0.137-0.121-0.205-0.285-0.205-0.487c0-0.168,0.06-0.315,0.179-0.44
		c0.119-0.126,0.29-0.221,0.514-0.283l3.116-0.84c0.076-0.021,0.151-0.036,0.226-0.047c0.073-0.01,0.148-0.016,0.225-0.016
		c0.133,0,0.238,0.061,0.315,0.184c0.076,0.123,0.115,0.289,0.115,0.498v11.35h1.679c0.622,0,1.018,0.051,1.185,0.152
		c0.168,0.102,0.252,0.293,0.252,0.572c0,0.252-0.069,0.441-0.21,0.566c-0.14,0.127-0.35,0.189-0.629,0.189h-6.273
		c-0.279,0-0.489-0.062-0.629-0.189c-0.141-0.125-0.21-0.314-0.21-0.566c0-0.279,0.084-0.471,0.252-0.572s0.562-0.152,1.186-0.152
		h1.741v-10.248L772.136,293.396z"/>
	<path d="M785.028,293.396c-0.091,0.014-0.159,0.023-0.204,0.031c-0.046,0.008-0.086,0.01-0.121,0.01
		c-0.217,0-0.394-0.061-0.529-0.184c-0.137-0.121-0.205-0.285-0.205-0.487c0-0.168,0.06-0.315,0.179-0.44
		c0.119-0.126,0.29-0.221,0.514-0.283l3.116-0.84c0.076-0.021,0.151-0.036,0.226-0.047c0.073-0.01,0.148-0.016,0.225-0.016
		c0.133,0,0.238,0.061,0.315,0.184c0.076,0.123,0.115,0.289,0.115,0.498v11.35h1.679c0.622,0,1.018,0.051,1.185,0.152
		c0.168,0.102,0.252,0.293,0.252,0.572c0,0.252-0.069,0.441-0.21,0.566c-0.14,0.127-0.35,0.189-0.629,0.189h-6.273
		c-0.279,0-0.489-0.062-0.629-0.189c-0.141-0.125-0.21-0.314-0.21-0.566c0-0.279,0.084-0.471,0.252-0.572s0.562-0.152,1.186-0.152
		H787v-10.248L785.028,293.396z"/>
</g>
<g>
	<path d="M20.874,397.73c-0.091,0.014-0.159,0.025-0.205,0.031c-0.045,0.008-0.085,0.012-0.121,0.012
		c-0.217,0-0.393-0.062-0.53-0.184c-0.136-0.123-0.204-0.285-0.204-0.488c0-0.168,0.059-0.314,0.178-0.44
		c0.119-0.126,0.29-0.221,0.514-0.284l3.116-0.838c0.077-0.021,0.152-0.037,0.226-0.048s0.148-0.016,0.226-0.016
		c0.133,0,0.238,0.062,0.314,0.184c0.077,0.122,0.116,0.288,0.116,0.498v11.351h1.678c0.623,0,1.018,0.051,1.186,0.152
		s0.251,0.291,0.251,0.572c0,0.25-0.07,0.439-0.209,0.566c-0.14,0.125-0.35,0.188-0.629,0.188h-6.273
		c-0.28,0-0.489-0.062-0.629-0.188c-0.14-0.127-0.209-0.316-0.209-0.566c0-0.281,0.084-0.471,0.251-0.572
		c0.168-0.102,0.563-0.152,1.186-0.152h1.741v-10.249L20.874,397.73z"/>
	<path d="M36.273,409.332c-1.315,0-2.358-0.619-3.131-1.861c-0.773-1.24-1.159-2.941-1.159-5.104c0-2.154,0.386-3.852,1.159-5.093
		s1.816-1.862,3.131-1.862s2.36,0.623,3.137,1.867c0.776,1.246,1.164,2.941,1.164,5.088s-0.388,3.846-1.164,5.094
		C38.634,408.709,37.588,409.332,36.273,409.332z M36.273,396.912c-0.804,0-1.43,0.477-1.878,1.428
		c-0.447,0.953-0.671,2.297-0.671,4.033c0,1.742,0.224,3.092,0.671,4.047c0.448,0.957,1.074,1.434,1.878,1.434
		c0.811,0,1.44-0.477,1.888-1.434c0.448-0.955,0.671-2.305,0.671-4.047c0-1.736-0.224-3.08-0.671-4.033
		C37.714,397.389,37.084,396.912,36.273,396.912z"/>
	<path d="M49.166,409.332c-1.315,0-2.359-0.619-3.132-1.861c-0.772-1.24-1.159-2.941-1.159-5.104c0-2.154,0.387-3.852,1.159-5.093
		s1.816-1.862,3.132-1.862c1.314,0,2.359,0.623,3.136,1.867c0.776,1.246,1.165,2.941,1.165,5.088s-0.389,3.846-1.165,5.094
		S50.48,409.332,49.166,409.332z M49.166,396.912c-0.805,0-1.431,0.477-1.878,1.428c-0.448,0.953-0.672,2.297-0.672,4.033
		c0,1.742,0.224,3.092,0.672,4.047c0.447,0.957,1.073,1.434,1.878,1.434c0.811,0,1.44-0.477,1.888-1.434
		c0.447-0.955,0.672-2.305,0.672-4.047c0-1.736-0.225-3.08-0.672-4.033C50.606,397.389,49.977,396.912,49.166,396.912z"/>
	<path d="M62.059,409.332c-1.315,0-2.359-0.619-3.132-1.861c-0.772-1.24-1.159-2.941-1.159-5.104c0-2.154,0.387-3.852,1.159-5.093
		s1.816-1.862,3.132-1.862c1.314,0,2.359,0.623,3.136,1.867c0.776,1.246,1.165,2.941,1.165,5.088s-0.389,3.846-1.165,5.094
		S63.373,409.332,62.059,409.332z M62.059,396.912c-0.805,0-1.431,0.477-1.878,1.428c-0.448,0.953-0.672,2.297-0.672,4.033
		c0,1.742,0.224,3.092,0.672,4.047c0.447,0.957,1.073,1.434,1.878,1.434c0.811,0,1.44-0.477,1.888-1.434
		c0.447-0.955,0.672-2.305,0.672-4.047c0-1.736-0.225-3.08-0.672-4.033C63.499,397.389,62.869,396.912,62.059,396.912z"/>
</g>
<g>
	<path d="M106.208,397.73c-0.091,0.014-0.159,0.024-0.205,0.031c-0.045,0.008-0.085,0.011-0.121,0.011
		c-0.217,0-0.393-0.062-0.53-0.184c-0.136-0.122-0.204-0.285-0.204-0.487c0-0.168,0.059-0.315,0.178-0.441
		c0.119-0.125,0.29-0.221,0.514-0.283l3.116-0.839c0.077-0.021,0.152-0.036,0.226-0.048c0.073-0.01,0.148-0.016,0.226-0.016
		c0.133,0,0.238,0.062,0.314,0.184c0.077,0.123,0.116,0.289,0.116,0.498v11.351h1.678c0.623,0,1.018,0.051,1.186,0.152
		s0.251,0.292,0.251,0.572c0,0.251-0.07,0.44-0.209,0.566c-0.14,0.126-0.35,0.188-0.629,0.188h-6.273
		c-0.28,0-0.489-0.062-0.629-0.188c-0.14-0.126-0.209-0.315-0.209-0.566c0-0.28,0.084-0.471,0.251-0.572
		c0.168-0.102,0.563-0.152,1.186-0.152h1.741v-10.249L106.208,397.73z"/>
	<path d="M121.607,409.332c-1.315,0-2.358-0.62-3.131-1.861s-1.159-2.942-1.159-5.104c0-2.154,0.386-3.852,1.159-5.094
		c0.773-1.24,1.816-1.861,3.131-1.861s2.36,0.623,3.137,1.867c0.776,1.245,1.164,2.94,1.164,5.088c0,2.146-0.388,3.845-1.164,5.093
		C123.968,408.708,122.922,409.332,121.607,409.332z M121.607,396.912c-0.804,0-1.43,0.477-1.878,1.428
		c-0.447,0.952-0.671,2.297-0.671,4.032c0,1.743,0.224,3.093,0.671,4.048c0.448,0.956,1.074,1.434,1.878,1.434
		c0.811,0,1.44-0.478,1.888-1.434c0.448-0.955,0.671-2.305,0.671-4.048c0-1.735-0.224-3.08-0.671-4.032
		C123.048,397.389,122.418,396.912,121.607,396.912z"/>
	<path d="M134.5,409.332c-1.315,0-2.359-0.62-3.132-1.861s-1.159-2.942-1.159-5.104c0-2.154,0.387-3.852,1.159-5.094
		c0.772-1.24,1.816-1.861,3.132-1.861c1.314,0,2.359,0.623,3.136,1.867c0.776,1.245,1.165,2.94,1.165,5.088
		c0,2.146-0.389,3.845-1.165,5.093S135.814,409.332,134.5,409.332z M134.5,396.912c-0.805,0-1.431,0.477-1.878,1.428
		c-0.448,0.952-0.672,2.297-0.672,4.032c0,1.743,0.224,3.093,0.672,4.048c0.447,0.956,1.073,1.434,1.878,1.434
		c0.811,0,1.44-0.478,1.888-1.434c0.447-0.955,0.672-2.305,0.672-4.048c0-1.735-0.225-3.08-0.672-4.032
		C135.94,397.389,135.311,396.912,134.5,396.912z"/>
	<path d="M144.885,397.73c-0.091,0.014-0.159,0.024-0.204,0.031c-0.046,0.008-0.086,0.011-0.121,0.011
		c-0.217,0-0.394-0.062-0.529-0.184c-0.137-0.122-0.205-0.285-0.205-0.487c0-0.168,0.06-0.315,0.179-0.441
		c0.119-0.125,0.29-0.221,0.514-0.283l3.116-0.839c0.076-0.021,0.151-0.036,0.226-0.048c0.073-0.01,0.148-0.016,0.225-0.016
		c0.133,0,0.238,0.062,0.315,0.184c0.076,0.123,0.115,0.289,0.115,0.498v11.351h1.679c0.622,0,1.018,0.051,1.185,0.152
		c0.168,0.102,0.252,0.292,0.252,0.572c0,0.251-0.069,0.44-0.21,0.566c-0.14,0.126-0.35,0.188-0.629,0.188h-6.273
		c-0.279,0-0.489-0.062-0.629-0.188c-0.141-0.126-0.21-0.315-0.21-0.566c0-0.28,0.084-0.471,0.252-0.572s0.562-0.152,1.186-0.152
		h1.741v-10.249L144.885,397.73z"/>
</g>
<g>
	<path d="M223.566,397.73c-0.091,0.014-0.159,0.024-0.205,0.031c-0.045,0.008-0.085,0.011-0.121,0.011
		c-0.217,0-0.393-0.062-0.53-0.184c-0.136-0.122-0.204-0.285-0.204-0.487c0-0.168,0.059-0.315,0.178-0.441
		c0.119-0.125,0.29-0.221,0.514-0.283l3.116-0.839c0.077-0.021,0.152-0.036,0.226-0.048c0.073-0.01,0.148-0.016,0.226-0.016
		c0.133,0,0.238,0.062,0.314,0.184c0.077,0.123,0.116,0.289,0.116,0.498v11.351h1.678c0.623,0,1.018,0.051,1.186,0.152
		s0.251,0.292,0.251,0.572c0,0.251-0.07,0.44-0.209,0.566c-0.14,0.126-0.35,0.188-0.629,0.188h-6.273
		c-0.28,0-0.489-0.062-0.629-0.188c-0.14-0.126-0.209-0.315-0.209-0.566c0-0.28,0.084-0.471,0.251-0.572
		c0.168-0.102,0.563-0.152,1.186-0.152h1.741v-10.249L223.566,397.73z"/>
	<path d="M238.966,409.332c-1.315,0-2.358-0.62-3.131-1.861s-1.159-2.942-1.159-5.104c0-2.154,0.386-3.852,1.159-5.094
		c0.773-1.24,1.816-1.861,3.131-1.861s2.36,0.623,3.137,1.867c0.776,1.245,1.164,2.94,1.164,5.088c0,2.146-0.388,3.845-1.164,5.093
		C241.326,408.708,240.281,409.332,238.966,409.332z M238.966,396.912c-0.804,0-1.43,0.477-1.878,1.428
		c-0.447,0.952-0.671,2.297-0.671,4.032c0,1.743,0.224,3.093,0.671,4.048c0.448,0.956,1.074,1.434,1.878,1.434
		c0.811,0,1.44-0.478,1.888-1.434c0.448-0.955,0.671-2.305,0.671-4.048c0-1.735-0.224-3.08-0.671-4.032
		C240.406,397.389,239.777,396.912,238.966,396.912z"/>
	<path d="M249.351,397.73c-0.091,0.014-0.159,0.024-0.204,0.031c-0.046,0.008-0.086,0.011-0.121,0.011
		c-0.217,0-0.394-0.062-0.529-0.184c-0.137-0.122-0.205-0.285-0.205-0.487c0-0.168,0.06-0.315,0.179-0.441
		c0.119-0.125,0.29-0.221,0.514-0.283l3.116-0.839c0.076-0.021,0.151-0.036,0.226-0.048c0.073-0.01,0.148-0.016,0.225-0.016
		c0.133,0,0.238,0.062,0.315,0.184c0.076,0.123,0.115,0.289,0.115,0.498v11.351h1.679c0.622,0,1.018,0.051,1.185,0.152
		c0.168,0.102,0.252,0.292,0.252,0.572c0,0.251-0.069,0.44-0.21,0.566c-0.14,0.126-0.35,0.188-0.629,0.188h-6.273
		c-0.279,0-0.489-0.062-0.629-0.188c-0.141-0.126-0.21-0.315-0.21-0.566c0-0.28,0.084-0.471,0.252-0.572s0.562-0.152,1.186-0.152
		h1.741v-10.249L249.351,397.73z"/>
	<path d="M264.751,409.332c-1.315,0-2.359-0.62-3.132-1.861s-1.159-2.942-1.159-5.104c0-2.154,0.387-3.852,1.159-5.094
		c0.772-1.24,1.816-1.861,3.132-1.861c1.314,0,2.359,0.623,3.136,1.867c0.776,1.245,1.165,2.94,1.165,5.088
		c0,2.146-0.389,3.845-1.165,5.093S266.065,409.332,264.751,409.332z M264.751,396.912c-0.805,0-1.431,0.477-1.878,1.428
		c-0.448,0.952-0.672,2.297-0.672,4.032c0,1.743,0.224,3.093,0.672,4.048c0.447,0.956,1.073,1.434,1.878,1.434
		c0.811,0,1.44-0.478,1.888-1.434c0.447-0.955,0.672-2.305,0.672-4.048c0-1.735-0.225-3.08-0.672-4.032
		C266.191,397.389,265.562,396.912,264.751,396.912z"/>
</g>
<g>
	<path d="M310.839,397.73c-0.091,0.014-0.159,0.023-0.205,0.031s-0.085,0.01-0.121,0.01c-0.217,0-0.393-0.061-0.53-0.184
		c-0.136-0.121-0.204-0.285-0.204-0.487c0-0.168,0.059-0.315,0.178-0.44c0.119-0.126,0.29-0.221,0.514-0.283l3.116-0.84
		c0.077-0.021,0.152-0.036,0.226-0.047c0.073-0.01,0.148-0.016,0.226-0.016c0.133,0,0.238,0.061,0.314,0.184
		c0.077,0.123,0.116,0.289,0.116,0.498v11.35h1.678c0.623,0,1.018,0.051,1.186,0.152s0.251,0.293,0.251,0.572
		c0,0.252-0.07,0.441-0.209,0.566c-0.14,0.127-0.35,0.189-0.629,0.189h-6.273c-0.28,0-0.489-0.062-0.629-0.189
		c-0.14-0.125-0.209-0.314-0.209-0.566c0-0.279,0.084-0.471,0.251-0.572c0.168-0.102,0.563-0.152,1.186-0.152h1.741v-10.248
		L310.839,397.73z"/>
	<path d="M326.239,409.332c-1.315,0-2.358-0.621-3.131-1.861c-0.773-1.242-1.159-2.943-1.159-5.104c0-2.154,0.386-3.852,1.159-5.094
		c0.773-1.241,1.816-1.861,3.131-1.861s2.361,0.622,3.136,1.867c0.776,1.244,1.164,2.939,1.164,5.088
		c0,2.146-0.388,3.844-1.164,5.092C328.6,408.707,327.554,409.332,326.239,409.332z M326.239,396.912
		c-0.804,0-1.43,0.476-1.878,1.428c-0.447,0.951-0.671,2.297-0.671,4.031c0,1.744,0.224,3.094,0.671,4.049
		c0.448,0.955,1.074,1.434,1.878,1.434c0.811,0,1.44-0.479,1.888-1.434c0.447-0.955,0.672-2.305,0.672-4.049
		c0-1.734-0.225-3.08-0.672-4.031C327.68,397.388,327.05,396.912,326.239,396.912z"/>
	<path d="M336.624,397.73c-0.09,0.014-0.158,0.023-0.203,0.031c-0.047,0.008-0.086,0.01-0.121,0.01
		c-0.217,0-0.395-0.061-0.529-0.184c-0.137-0.121-0.205-0.285-0.205-0.487c0-0.168,0.059-0.315,0.178-0.44
		c0.119-0.126,0.291-0.221,0.514-0.283l3.117-0.84c0.076-0.021,0.15-0.036,0.225-0.047c0.074-0.01,0.148-0.016,0.225-0.016
		c0.133,0,0.238,0.061,0.316,0.184c0.076,0.123,0.115,0.289,0.115,0.498v11.35h1.678c0.623,0,1.018,0.051,1.186,0.152
		s0.252,0.293,0.252,0.572c0,0.252-0.07,0.441-0.211,0.566c-0.139,0.127-0.35,0.189-0.629,0.189h-6.273
		c-0.279,0-0.488-0.062-0.629-0.189c-0.141-0.125-0.209-0.314-0.209-0.566c0-0.279,0.084-0.471,0.252-0.572s0.562-0.152,1.186-0.152
		h1.74v-10.248L336.624,397.73z"/>
	<path d="M349.516,397.73c-0.09,0.014-0.158,0.023-0.203,0.031c-0.047,0.008-0.086,0.01-0.121,0.01
		c-0.217,0-0.395-0.061-0.529-0.184c-0.137-0.121-0.205-0.285-0.205-0.487c0-0.168,0.059-0.315,0.178-0.44
		c0.119-0.126,0.291-0.221,0.514-0.283l3.117-0.84c0.076-0.021,0.15-0.036,0.225-0.047c0.074-0.01,0.148-0.016,0.225-0.016
		c0.133,0,0.238,0.061,0.316,0.184c0.076,0.123,0.115,0.289,0.115,0.498v11.35h1.678c0.623,0,1.018,0.051,1.186,0.152
		s0.252,0.293,0.252,0.572c0,0.252-0.07,0.441-0.211,0.566c-0.139,0.127-0.35,0.189-0.629,0.189h-6.273
		c-0.279,0-0.488-0.062-0.629-0.189c-0.141-0.125-0.209-0.314-0.209-0.566c0-0.279,0.084-0.471,0.252-0.572s0.562-0.152,1.186-0.152
		h1.74v-10.248L349.516,397.73z"/>
</g>
<g>
	<path d="M468.315,397.73c-0.091,0.014-0.159,0.024-0.205,0.031c-0.045,0.008-0.085,0.011-0.12,0.011
		c-0.217,0-0.394-0.062-0.53-0.184c-0.136-0.122-0.203-0.285-0.203-0.487c0-0.168,0.059-0.315,0.178-0.441
		c0.119-0.125,0.29-0.221,0.514-0.283l3.115-0.839c0.078-0.021,0.152-0.036,0.227-0.048c0.072-0.01,0.148-0.016,0.225-0.016
		c0.133,0,0.238,0.062,0.314,0.184c0.078,0.123,0.116,0.289,0.116,0.498v11.351h1.679c0.622,0,1.018,0.051,1.186,0.152
		s0.251,0.292,0.251,0.572c0,0.251-0.069,0.44-0.21,0.566c-0.14,0.126-0.35,0.188-0.629,0.188h-6.273
		c-0.279,0-0.489-0.062-0.629-0.188c-0.141-0.126-0.21-0.315-0.21-0.566c0-0.28,0.084-0.471,0.251-0.572
		c0.168-0.102,0.563-0.152,1.186-0.152h1.742v-10.249L468.315,397.73z"/>
	<path d="M481.208,397.73c-0.091,0.014-0.159,0.024-0.205,0.031c-0.045,0.008-0.085,0.011-0.12,0.011
		c-0.217,0-0.394-0.062-0.53-0.184c-0.136-0.122-0.203-0.285-0.203-0.487c0-0.168,0.059-0.315,0.178-0.441
		c0.119-0.125,0.29-0.221,0.514-0.283l3.115-0.839c0.078-0.021,0.152-0.036,0.227-0.048c0.072-0.01,0.148-0.016,0.225-0.016
		c0.133,0,0.238,0.062,0.314,0.184c0.078,0.123,0.116,0.289,0.116,0.498v11.351h1.679c0.622,0,1.018,0.051,1.186,0.152
		s0.251,0.292,0.251,0.572c0,0.251-0.069,0.44-0.21,0.566c-0.14,0.126-0.35,0.188-0.629,0.188h-6.273
		c-0.279,0-0.489-0.062-0.629-0.188c-0.141-0.126-0.21-0.315-0.21-0.566c0-0.28,0.084-0.471,0.251-0.572
		c0.168-0.102,0.563-0.152,1.186-0.152h1.742v-10.249L481.208,397.73z"/>
	<path d="M496.608,409.332c-1.316,0-2.359-0.62-3.133-1.861c-0.771-1.241-1.158-2.942-1.158-5.104c0-2.154,0.387-3.852,1.158-5.094
		c0.773-1.24,1.816-1.861,3.133-1.861c1.314,0,2.359,0.623,3.135,1.867c0.777,1.245,1.166,2.94,1.166,5.088
		c0,2.146-0.389,3.845-1.166,5.093C498.967,408.708,497.922,409.332,496.608,409.332z M496.608,396.912
		c-0.805,0-1.432,0.477-1.879,1.428c-0.447,0.952-0.672,2.297-0.672,4.032c0,1.743,0.225,3.093,0.672,4.048
		c0.447,0.956,1.074,1.434,1.879,1.434c0.811,0,1.439-0.478,1.887-1.434c0.447-0.955,0.672-2.305,0.672-4.048
		c0-1.735-0.225-3.08-0.672-4.032C498.047,397.389,497.418,396.912,496.608,396.912z"/>
	<path d="M509.5,409.332c-1.316,0-2.359-0.62-3.133-1.861c-0.771-1.241-1.158-2.942-1.158-5.104c0-2.154,0.387-3.852,1.158-5.094
		c0.773-1.24,1.816-1.861,3.133-1.861c1.314,0,2.359,0.623,3.135,1.867c0.777,1.245,1.166,2.94,1.166,5.088
		c0,2.146-0.389,3.845-1.166,5.093C511.86,408.708,510.815,409.332,509.5,409.332z M509.5,396.912c-0.805,0-1.432,0.477-1.879,1.428
		c-0.447,0.952-0.672,2.297-0.672,4.032c0,1.743,0.225,3.093,0.672,4.048c0.447,0.956,1.074,1.434,1.879,1.434
		c0.811,0,1.439-0.478,1.887-1.434c0.447-0.955,0.672-2.305,0.672-4.048c0-1.735-0.225-3.08-0.672-4.032
		C510.94,397.389,510.311,396.912,509.5,396.912z"/>
</g>
<g>
	<path d="M556.315,397.73c-0.091,0.014-0.159,0.024-0.205,0.031c-0.045,0.008-0.085,0.011-0.12,0.011
		c-0.217,0-0.394-0.062-0.53-0.184c-0.136-0.122-0.203-0.285-0.203-0.487c0-0.168,0.059-0.315,0.178-0.441
		c0.119-0.125,0.29-0.221,0.514-0.283l3.115-0.839c0.078-0.021,0.152-0.036,0.227-0.048c0.072-0.01,0.148-0.016,0.225-0.016
		c0.133,0,0.238,0.062,0.314,0.184c0.078,0.123,0.116,0.289,0.116,0.498v11.351h1.679c0.622,0,1.018,0.051,1.186,0.152
		s0.251,0.292,0.251,0.572c0,0.251-0.069,0.44-0.21,0.566c-0.14,0.126-0.35,0.188-0.629,0.188h-6.273
		c-0.279,0-0.489-0.062-0.629-0.188c-0.141-0.126-0.21-0.315-0.21-0.566c0-0.28,0.084-0.471,0.251-0.572
		c0.168-0.102,0.563-0.152,1.186-0.152h1.742v-10.249L556.315,397.73z"/>
	<path d="M569.208,397.73c-0.091,0.014-0.159,0.024-0.205,0.031c-0.045,0.008-0.085,0.011-0.12,0.011
		c-0.217,0-0.394-0.062-0.53-0.184c-0.136-0.122-0.203-0.285-0.203-0.487c0-0.168,0.059-0.315,0.178-0.441
		c0.119-0.125,0.29-0.221,0.514-0.283l3.115-0.839c0.078-0.021,0.152-0.036,0.227-0.048c0.072-0.01,0.148-0.016,0.225-0.016
		c0.133,0,0.238,0.062,0.314,0.184c0.078,0.123,0.116,0.289,0.116,0.498v11.351h1.679c0.622,0,1.018,0.051,1.186,0.152
		s0.251,0.292,0.251,0.572c0,0.251-0.069,0.44-0.21,0.566c-0.14,0.126-0.35,0.188-0.629,0.188h-6.273
		c-0.279,0-0.489-0.062-0.629-0.188c-0.141-0.126-0.21-0.315-0.21-0.566c0-0.28,0.084-0.471,0.251-0.572
		c0.168-0.102,0.563-0.152,1.186-0.152h1.742v-10.249L569.208,397.73z"/>
	<path d="M584.608,409.332c-1.316,0-2.359-0.62-3.133-1.861c-0.771-1.241-1.158-2.942-1.158-5.104c0-2.154,0.387-3.852,1.158-5.094
		c0.773-1.24,1.816-1.861,3.133-1.861c1.314,0,2.359,0.623,3.135,1.867c0.777,1.245,1.166,2.94,1.166,5.088
		c0,2.146-0.389,3.845-1.166,5.093C586.967,408.708,585.922,409.332,584.608,409.332z M584.608,396.912
		c-0.805,0-1.432,0.477-1.879,1.428c-0.447,0.952-0.672,2.297-0.672,4.032c0,1.743,0.225,3.093,0.672,4.048
		c0.447,0.956,1.074,1.434,1.879,1.434c0.811,0,1.439-0.478,1.887-1.434c0.447-0.955,0.672-2.305,0.672-4.048
		c0-1.735-0.225-3.08-0.672-4.032C586.047,397.389,585.418,396.912,584.608,396.912z"/>
	<path d="M594.993,397.73c-0.092,0.014-0.16,0.024-0.205,0.031c-0.045,0.008-0.086,0.011-0.121,0.011
		c-0.217,0-0.393-0.062-0.529-0.184s-0.205-0.285-0.205-0.487c0-0.168,0.061-0.315,0.18-0.441c0.119-0.125,0.289-0.221,0.514-0.283
		l3.115-0.839c0.076-0.021,0.152-0.036,0.227-0.048c0.072-0.01,0.148-0.016,0.225-0.016c0.133,0,0.238,0.062,0.314,0.184
		c0.076,0.123,0.115,0.289,0.115,0.498v11.351h1.68c0.621,0,1.018,0.051,1.184,0.152c0.168,0.102,0.252,0.292,0.252,0.572
		c0,0.251-0.068,0.44-0.209,0.566s-0.35,0.188-0.629,0.188h-6.273c-0.279,0-0.49-0.062-0.629-0.188
		c-0.141-0.126-0.211-0.315-0.211-0.566c0-0.28,0.084-0.471,0.252-0.572s0.562-0.152,1.186-0.152h1.742v-10.249L594.993,397.73z"/>
</g>
<g>
	<path d="M671.007,397.73c-0.091,0.014-0.159,0.024-0.204,0.031c-0.046,0.008-0.086,0.011-0.121,0.011
		c-0.217,0-0.393-0.062-0.529-0.184s-0.205-0.285-0.205-0.487c0-0.168,0.06-0.315,0.179-0.441c0.118-0.125,0.29-0.221,0.514-0.283
		l3.116-0.839c0.076-0.021,0.152-0.036,0.225-0.048c0.074-0.01,0.148-0.016,0.227-0.016c0.133,0,0.237,0.062,0.314,0.184
		c0.076,0.123,0.115,0.289,0.115,0.498v11.351h1.678c0.623,0,1.018,0.051,1.186,0.152s0.252,0.292,0.252,0.572
		c0,0.251-0.07,0.44-0.209,0.566c-0.141,0.126-0.351,0.188-0.63,0.188h-6.273c-0.28,0-0.489-0.062-0.63-0.188
		c-0.139-0.126-0.209-0.315-0.209-0.566c0-0.28,0.084-0.471,0.252-0.572s0.562-0.152,1.186-0.152h1.74v-10.249L671.007,397.73z"/>
	<path d="M683.9,397.73c-0.091,0.014-0.159,0.024-0.204,0.031c-0.046,0.008-0.086,0.011-0.121,0.011
		c-0.217,0-0.393-0.062-0.529-0.184s-0.205-0.285-0.205-0.487c0-0.168,0.06-0.315,0.179-0.441c0.118-0.125,0.29-0.221,0.514-0.283
		l3.116-0.839c0.076-0.021,0.152-0.036,0.225-0.048c0.074-0.01,0.148-0.016,0.227-0.016c0.133,0,0.237,0.062,0.314,0.184
		c0.076,0.123,0.115,0.289,0.115,0.498v11.351h1.678c0.623,0,1.018,0.051,1.186,0.152s0.252,0.292,0.252,0.572
		c0,0.251-0.07,0.44-0.209,0.566c-0.141,0.126-0.351,0.188-0.63,0.188h-6.273c-0.28,0-0.489-0.062-0.63-0.188
		c-0.139-0.126-0.209-0.315-0.209-0.566c0-0.28,0.084-0.471,0.252-0.572s0.562-0.152,1.186-0.152h1.74v-10.249L683.9,397.73z"/>
	<path d="M696.792,397.73c-0.09,0.014-0.158,0.024-0.203,0.031c-0.047,0.008-0.086,0.011-0.121,0.011
		c-0.217,0-0.395-0.062-0.529-0.184c-0.137-0.122-0.205-0.285-0.205-0.487c0-0.168,0.059-0.315,0.178-0.441
		c0.119-0.125,0.291-0.221,0.514-0.283l3.117-0.839c0.076-0.021,0.15-0.036,0.225-0.048c0.074-0.01,0.148-0.016,0.225-0.016
		c0.133,0,0.238,0.062,0.316,0.184c0.076,0.123,0.115,0.289,0.115,0.498v11.351h1.678c0.623,0,1.018,0.051,1.186,0.152
		s0.252,0.292,0.252,0.572c0,0.251-0.07,0.44-0.211,0.566c-0.139,0.126-0.35,0.188-0.629,0.188h-6.273
		c-0.279,0-0.488-0.062-0.629-0.188s-0.209-0.315-0.209-0.566c0-0.28,0.084-0.471,0.252-0.572s0.562-0.152,1.186-0.152h1.74v-10.249
		L696.792,397.73z"/>
	<path d="M712.192,409.332c-1.314,0-2.359-0.62-3.131-1.861c-0.773-1.241-1.16-2.942-1.16-5.104c0-2.154,0.387-3.852,1.16-5.094
		c0.771-1.24,1.816-1.861,3.131-1.861s2.359,0.623,3.137,1.867c0.775,1.245,1.164,2.94,1.164,5.088c0,2.146-0.389,3.845-1.164,5.093
		C714.551,408.708,713.506,409.332,712.192,409.332z M712.192,396.912c-0.805,0-1.43,0.477-1.877,1.428
		c-0.449,0.952-0.672,2.297-0.672,4.032c0,1.743,0.223,3.093,0.672,4.048c0.447,0.956,1.072,1.434,1.877,1.434
		c0.811,0,1.441-0.478,1.889-1.434c0.447-0.955,0.672-2.305,0.672-4.048c0-1.735-0.225-3.08-0.672-4.032
		C713.633,397.389,713.002,396.912,712.192,396.912z"/>
</g>
<g>
	<path d="M757.007,397.73c-0.091,0.014-0.159,0.024-0.204,0.031c-0.046,0.008-0.086,0.011-0.121,0.011
		c-0.217,0-0.393-0.062-0.529-0.184s-0.205-0.285-0.205-0.487c0-0.168,0.06-0.315,0.179-0.441c0.118-0.125,0.29-0.221,0.514-0.283
		l3.116-0.839c0.076-0.021,0.152-0.036,0.225-0.048c0.074-0.01,0.148-0.016,0.227-0.016c0.133,0,0.237,0.062,0.314,0.184
		c0.076,0.123,0.115,0.289,0.115,0.498v11.351h1.678c0.623,0,1.018,0.051,1.186,0.152s0.252,0.292,0.252,0.572
		c0,0.251-0.07,0.44-0.209,0.566c-0.141,0.126-0.351,0.188-0.63,0.188h-6.273c-0.28,0-0.489-0.062-0.63-0.188
		c-0.139-0.126-0.209-0.315-0.209-0.566c0-0.28,0.084-0.471,0.252-0.572s0.562-0.152,1.186-0.152h1.74v-10.249L757.007,397.73z"/>
	<path d="M769.9,397.73c-0.091,0.014-0.159,0.024-0.204,0.031c-0.046,0.008-0.086,0.011-0.121,0.011
		c-0.217,0-0.393-0.062-0.529-0.184s-0.205-0.285-0.205-0.487c0-0.168,0.06-0.315,0.179-0.441c0.118-0.125,0.29-0.221,0.514-0.283
		l3.116-0.839c0.076-0.021,0.152-0.036,0.225-0.048c0.074-0.01,0.148-0.016,0.227-0.016c0.133,0,0.237,0.062,0.314,0.184
		c0.076,0.123,0.115,0.289,0.115,0.498v11.351h1.678c0.623,0,1.018,0.051,1.186,0.152s0.252,0.292,0.252,0.572
		c0,0.251-0.07,0.44-0.209,0.566c-0.141,0.126-0.351,0.188-0.63,0.188h-6.273c-0.28,0-0.489-0.062-0.63-0.188
		c-0.139-0.126-0.209-0.315-0.209-0.566c0-0.28,0.084-0.471,0.252-0.572s0.562-0.152,1.186-0.152h1.74v-10.249L769.9,397.73z"/>
	<path d="M782.792,397.73c-0.09,0.014-0.158,0.024-0.203,0.031c-0.047,0.008-0.086,0.011-0.121,0.011
		c-0.217,0-0.395-0.062-0.529-0.184c-0.137-0.122-0.205-0.285-0.205-0.487c0-0.168,0.059-0.315,0.178-0.441
		c0.119-0.125,0.291-0.221,0.514-0.283l3.117-0.839c0.076-0.021,0.15-0.036,0.225-0.048c0.074-0.01,0.148-0.016,0.225-0.016
		c0.133,0,0.238,0.062,0.316,0.184c0.076,0.123,0.115,0.289,0.115,0.498v11.351h1.678c0.623,0,1.018,0.051,1.186,0.152
		s0.252,0.292,0.252,0.572c0,0.251-0.07,0.44-0.211,0.566c-0.139,0.126-0.35,0.188-0.629,0.188h-6.273
		c-0.279,0-0.488-0.062-0.629-0.188s-0.209-0.315-0.209-0.566c0-0.28,0.084-0.471,0.252-0.572s0.562-0.152,1.186-0.152h1.74v-10.249
		L782.792,397.73z"/>
	<path d="M795.684,397.73c-0.09,0.014-0.158,0.024-0.203,0.031c-0.047,0.008-0.086,0.011-0.121,0.011
		c-0.217,0-0.395-0.062-0.529-0.184c-0.137-0.122-0.205-0.285-0.205-0.487c0-0.168,0.059-0.315,0.178-0.441
		c0.119-0.125,0.291-0.221,0.514-0.283l3.117-0.839c0.076-0.021,0.15-0.036,0.225-0.048c0.074-0.01,0.148-0.016,0.225-0.016
		c0.133,0,0.238,0.062,0.316,0.184c0.076,0.123,0.115,0.289,0.115,0.498v11.351h1.678c0.623,0,1.018,0.051,1.186,0.152
		s0.252,0.292,0.252,0.572c0,0.251-0.07,0.44-0.211,0.566c-0.139,0.126-0.35,0.188-0.629,0.188h-6.273
		c-0.279,0-0.488-0.062-0.629-0.188s-0.209-0.315-0.209-0.566c0-0.28,0.084-0.471,0.252-0.572s0.562-0.152,1.186-0.152h1.74v-10.249
		L795.684,397.73z"/>
</g>
<g>
</g>
<g>
</g>
<g>
</g>
<g>
</g>
<g>
</g>
<g>
</g>
</svg>
